<?xml version="1.0" encoding="utf-8"?>
<!-- Generator: $$$/GeneralStr/196=Adobe Illustrator 27.6.0, SVG Export Plug-In . SVG Version: 6.00 Build 0)  -->
<svg version="1.1" id="圖層_1" xmlns="http://www.w3.org/2000/svg" xmlns:xlink="http://www.w3.org/1999/xlink" x="0px" y="0px"
	 viewBox="0 0 2000 400" style="enable-background:new 0 0 2000 400;" xml:space="preserve">
<style type="text/css">
	.st0{fill:#FFFFFF;}
</style>
<path class="st0" d="M2068.5,605.1v249.6H-86.6V605.1c0,0,9.2,0,69.9,0c140,0,179.3,62.8,358.4,62.8S628.6,606,781.3,606
	c186.6,0,254.5,93.1,403.5,93.1S1358.3,594,1475.6,594s173.7,74.6,275.5,74.6s100.5-63.6,238.1-63.6
	C2066,605.1,2068.5,605.1,2068.5,605.1z"/>
<g>
	<rect x="1373.6" y="296.9" class="st0" width="31.3" height="125.1"/>
	<rect x="1530.2" y="256.4" class="st0" width="31.3" height="165.6"/>
	<rect x="1624.1" y="249.4" class="st0" width="31.3" height="172.5"/>
	<rect x="1655.5" y="235.2" class="st0" width="31.3" height="186.8"/>
	<rect x="1561.5" y="246.6" class="st0" width="31.3" height="185.9"/>
	<rect x="1592.8" y="270.9" class="st0" width="31.3" height="151.1"/>
	<rect x="1404.9" y="333.6" class="st0" width="31.3" height="125.1"/>
	<rect x="1436.2" y="318.9" class="st0" width="31.3" height="125.1"/>
	<rect x="1467.5" y="307.3" class="st0" width="31.3" height="125.1"/>
	<rect x="1498.9" y="279.2" class="st0" width="31.3" height="176.8"/>
	<rect x="1686.8" y="248.4" class="st0" width="31.3" height="162.2"/>
	<rect x="1843.4" y="195.8" class="st0" width="31.3" height="214.7"/>
	<rect x="1937.4" y="186.8" class="st0" width="31.3" height="223.7"/>
	<rect x="1968.7" y="168.4" class="st0" width="31.3" height="242.2"/>
	<rect x="1874.7" y="233" class="st0" width="31.3" height="177.6"/>
	<rect x="1906" y="214.7" class="st0" width="31.3" height="195.9"/>
	<rect x="1718.1" y="296" class="st0" width="31.3" height="162.2"/>
	<rect x="1749.4" y="276.9" class="st0" width="31.3" height="162.2"/>
	<rect x="1780.7" y="261.9" class="st0" width="31.3" height="162.2"/>
	<rect x="1812.1" y="181.4" class="st0" width="31.3" height="229.2"/>
	<rect x="747.1" y="261.7" class="st0" width="31.3" height="168.8"/>
	<rect x="903.7" y="353.4" class="st0" width="31.3" height="68.6"/>
	<rect x="997.7" y="249.4" class="st0" width="31.3" height="172.5"/>
	<rect x="1029" y="235.2" class="st0" width="31.3" height="186.8"/>
	<rect x="935.1" y="358.5" class="st0" width="31.3" height="71.9"/>
	<rect x="966.4" y="314.1" class="st0" width="31.3" height="116.3"/>
	<rect x="778.5" y="286.6" class="st0" width="31.3" height="172.1"/>
	<rect x="809.8" y="329.7" class="st0" width="31.3" height="117.6"/>
	<rect x="841.1" y="353.3" class="st0" width="31.3" height="85.2"/>
	<rect x="872.4" y="366.7" class="st0" width="31.3" height="63.7"/>
	<rect x="1060.3" y="248.4" class="st0" width="31.3" height="162.2"/>
	<rect x="1217" y="195.8" class="st0" width="31.3" height="214.7"/>
	<rect x="1310.9" y="263.4" class="st0" width="31.3" height="223.7"/>
	<rect x="1342.2" y="315.6" class="st0" width="31.3" height="242.2"/>
	<rect x="1248.3" y="167.6" class="st0" width="31.3" height="254.4"/>
	<rect x="1279.6" y="214.7" class="st0" width="31.3" height="195.9"/>
	<rect x="1091.7" y="276.9" class="st0" width="31.3" height="181.3"/>
	<rect x="1123" y="315.1" class="st0" width="31.3" height="162.2"/>
	<rect x="1154.3" y="278.3" class="st0" width="31.3" height="162.2"/>
	<rect x="1185.6" y="224.6" class="st0" width="31.3" height="229.2"/>
	<rect x="120.7" y="256.5" class="st0" width="31.3" height="174.4"/>
	<rect x="277.3" y="309.2" class="st0" width="31.3" height="122.4"/>
	<rect x="371.3" y="304" class="st0" width="31.3" height="127.5"/>
	<rect x="402.6" y="293.5" class="st0" width="31.3" height="138.1"/>
	<rect x="308.6" y="330.3" class="st0" width="31.3" height="101.2"/>
	<rect x="339.9" y="319.9" class="st0" width="31.3" height="111.7"/>
	<rect x="152" y="267.5" class="st0" width="31.3" height="191.2"/>
	<rect x="183.3" y="293.5" class="st0" width="31.3" height="154.3"/>
	<rect x="214.7" y="300.9" class="st0" width="31.3" height="138.4"/>
	<rect x="-4.6" y="233.1" class="st0" width="31.3" height="198.5"/>
	<rect x="26.7" y="284.3" class="st0" width="31.3" height="174.4"/>
	<rect x="58.1" y="263.9" class="st0" width="31.3" height="174.4"/>
	<rect x="89.4" y="247.7" class="st0" width="31.3" height="174.4"/>
	<rect x="246" y="319.9" class="st0" width="31.3" height="111.7"/>
	<rect x="433.9" y="303.2" class="st0" width="31.3" height="119.9"/>
	<rect x="590.5" y="256.3" class="st0" width="31.3" height="165.3"/>
	<rect x="684.5" y="249.4" class="st0" width="31.3" height="172.2"/>
	<rect x="715.8" y="235.2" class="st0" width="31.3" height="186.5"/>
	<rect x="621.8" y="284.9" class="st0" width="31.3" height="136.7"/>
	<rect x="653.2" y="270.8" class="st0" width="31.3" height="150.8"/>
	<rect x="465.2" y="274.3" class="st0" width="31.3" height="184"/>
	<rect x="496.6" y="244.1" class="st0" width="31.3" height="200.1"/>
	<rect x="527.9" y="278.5" class="st0" width="31.3" height="160.5"/>
	<rect x="559.2" y="245.2" class="st0" width="31.3" height="176.5"/>
</g>
</svg>
