<?xml version="1.0" encoding="utf-8"?>
<!-- Generator: $$$/GeneralStr/196=Adobe Illustrator 27.6.0, SVG Export Plug-In . SVG Version: 6.00 Build 0)  -->
<svg version="1.1" id="圖層_2_00000026138106208001172840000014163308352183494784_"
	 xmlns="http://www.w3.org/2000/svg" xmlns:xlink="http://www.w3.org/1999/xlink" x="0px" y="0px" viewBox="0 0 700 700"
	 style="enable-background:new 0 0 700 700;" xml:space="preserve">
<style type="text/css">
	.st0{opacity:0.1;fill:#6FACD1;enable-background:new    ;}
	.st1{opacity:0.1;fill:#CCBA71;enable-background:new    ;}
	.st2{opacity:0.1;fill:#C3CE6F;enable-background:new    ;}
	.st3{fill:#D3E3EA;}
	.st4{fill:#D1DCE8;}
	.st5{fill:#EBF2F7;}
	.st6{fill:#FFFFFF;}
	.st7{fill:#CCCCCC;}
	.st8{fill:#569ACC;}
	.st9{fill:#4182AA;}
	.st10{fill:#89C4E8;}
	.st11{fill:#DDAF4A;}
	.st12{fill:#B78B32;}
	.st13{fill:#EAC986;}
	.st14{fill:#C3CE6F;}
	.st15{fill:#ACB25D;}
	.st16{fill:#DBE090;}
	.st17{fill:#7E5FAF;}
	.st18{fill:#9D75D1;}
	.st19{fill:#EABB8C;}
	.st20{fill:#E8B077;}
	.st21{fill:#BA895D;}
	.st22{fill:none;stroke:#65A8DB;stroke-width:3;stroke-miterlimit:10;}
	.st23{fill:none;stroke:#65A8DB;stroke-width:3;stroke-miterlimit:10;stroke-dasharray:5.8618,5.8618;}
	.st24{fill:none;stroke:#65A8DB;stroke-width:3;stroke-miterlimit:10;stroke-dasharray:6.1021,6.1021;}
	.st25{fill:url(#SVGID_1_);}
	.st26{fill:#DDDDDD;}
	.st27{fill:url(#SVGID_00000063611216039251086990000007895503242872139905_);}
	.st28{fill:url(#SVGID_00000150810434811313859720000001141154051964043921_);}
	.st29{fill:#EBEFF2;}
	.st30{fill:#DEE0E2;}
	.st31{fill:#F2F2F2;}
	.st32{fill:none;stroke:#EAC7D5;stroke-miterlimit:10;}
	.st33{fill:none;stroke:#C8E8D0;stroke-miterlimit:10;}
	.st34{fill:#E8E9EA;}
	.st35{fill:#EFEFEF;}
	.st36{opacity:5.000000e-02;}
	.st37{fill:#F6F6F6;}
	.st38{fill:#CECECE;}
	.st39{opacity:5.000000e-02;enable-background:new    ;}
	.st40{fill:#8FC0E5;}
	.st41{fill:#FFBB3D;}
	.st42{opacity:0.3;fill:#FFFFFF;enable-background:new    ;}
	.st43{opacity:0.5;fill:#FFFFFF;enable-background:new    ;}
	.st44{opacity:0.2;fill:#83CAFF;enable-background:new    ;}
</style>
<path class="st0" d="M-684.3,878.3c-21.2-6.6-58.4,2.6-72.7,34.3c-12.4,27.6-3.3,66.1,36.9,102.1c40.2,36,134.8,82.4,164.4,29.3
	c29.6-53.1,45.7-111.7-26.7-111.7S-650.7,888.8-684.3,878.3z"/>
<path class="st1" d="M-662,1029.1c12.3,64.3,74.6,87.8,155.5,34.6c80.9-53.2,111.3-188.1,43.6-175
	C-530.6,901.8-682.1,924.4-662,1029.1z"/>
<path class="st2" d="M-495,890.6c0,50.2-25.7,144.2-72.1,144.2c-46.4,0-106-83.1-106-133.2s37.6-90.8,84-90.8
	C-542.7,810.8-495,840.5-495,890.6z"/>
<path class="st0" d="M-119.8,1084.4c26.3-10.2,54.5-39.8,40.8-66.8c-11.9-23.6-54.2-39.1-124.5-32.9
	c-70.3,6.2-202.5,42.3-185.1,91.4c17.4,49.1,52.7,92.4,122.9,44.9S-161.5,1100.6-119.8,1084.4z"/>
<path class="st1" d="M-112.1,1017.3c-67.9-27.9-148.8-0.1-181.1,82.6s55.3,178.2,109.8,126.5C-128.9,1174.7-1.6,1062.7-112.1,1017.3
	z"/>
<path class="st2" d="M-357.1,1224.4c-43.6-28-100.3-97.4-55.2-127.8c45.1-30.4,175.1-23.1,218.7,5c43.6,28,42.4,75.4-2.7,105.8
	C-241.3,1237.7-313.5,1252.4-357.1,1224.4z"/>
<path class="st0" d="M-463.4,1439.1c25.9,7,71.3-2.8,88.7-36.5c15.2-29.4,4-70.4-45-108.7c-49-38.3-164.4-87.8-200.5-31.2
	c-36.1,56.6-55.7,119,32.5,119S-504.4,1428-463.4,1439.1z"/>
<path class="st1" d="M-384.9,1437.3c34.8-63.9-20.2-129.5-155.5-143.2c-135.3-13.7-274,79.1-184.9,117.5
	C-636.1,1450-441.5,1541.3-384.9,1437.3z"/>
<path class="st2" d="M-722.2,1400.3c0-53.4,37.6-153.6,105.3-153.6s154.9,88.5,154.9,141.9c0,53.4-54.9,96.8-122.7,96.8
	S-722.2,1453.7-722.2,1400.3z"/>
<g>
	<g>
		
			<rect x="-685.7" y="897.3" transform="matrix(2.284510e-02 -0.9997 0.9997 2.284510e-02 -1549.8331 322.366)" class="st3" width="151.4" height="113.5"/>
	</g>
	<g>
		
			<rect x="-677.9" y="857.8" transform="matrix(0.987 -0.1605 0.1605 0.987 -157.8792 -87.5967)" class="st4" width="113.5" height="151.4"/>
	</g>
	<g>
		
			<rect x="-668.7" y="874.3" transform="matrix(0.9988 -4.917352e-02 4.917352e-02 0.9988 -47.4536 -28.9425)" class="st5" width="113.5" height="151.4"/>
	</g>
	<g>
		
			<rect x="-671.8" y="862.7" transform="matrix(0.9929 -0.1191 0.1191 0.9929 -116.1352 -66.5723)" class="st6" width="113.5" height="151.4"/>
		
			<rect x="-661.6" y="878.7" transform="matrix(0.9929 -0.1191 0.1191 0.9929 -109.2725 -67.9386)" class="st7" width="77.1" height="3.2"/>
		
			<rect x="-659" y="900.4" transform="matrix(0.9929 -0.1191 0.1191 0.9929 -111.8385 -67.4745)" class="st7" width="77.1" height="3.2"/>
		
			<rect x="-657.2" y="914.9" transform="matrix(0.9929 -0.1191 0.1191 0.9929 -113.5527 -67.1568)" class="st7" width="77.1" height="3.2"/>
		
			<rect x="-660.6" y="888" transform="matrix(0.9929 -0.1191 0.1191 0.9929 -110.4941 -69.778)" class="st7" width="43.1" height="3.2"/>
		
			<rect x="-659.7" y="895.2" transform="matrix(0.9929 -0.1191 0.1191 0.9929 -111.3452 -69.6196)" class="st7" width="43.1" height="3.2"/>
		
			<rect x="-658" y="909.7" transform="matrix(0.9929 -0.1191 0.1191 0.9929 -113.0601 -69.3139)" class="st7" width="43.1" height="3.2"/>
		
			<rect x="-655.5" y="929.3" transform="matrix(0.9929 -0.1191 0.1191 0.9929 -115.2555 -66.852)" class="st7" width="77.1" height="3.2"/>
		
			<rect x="-656.2" y="924.1" transform="matrix(0.9929 -0.1191 0.1191 0.9929 -114.7622 -68.997)" class="st7" width="43.1" height="3.2"/>
		
			<rect x="-648.6" y="987.6" transform="matrix(0.9929 -0.1191 0.1191 0.9929 -122.287 -67.9077)" class="st7" width="38.6" height="3.2"/>
		
			<rect x="-647.7" y="995.8" transform="matrix(0.9929 -0.1191 0.1191 0.9929 -123.3176 -68.7546)" class="st7" width="21.6" height="3.2"/>
		
			<rect x="-597.8" y="982.3" transform="matrix(0.9929 -0.1191 0.1191 0.9929 -121.3391 -62.6456)" class="st7" width="26" height="3.2"/>
		
			<rect x="-596.9" y="990.2" transform="matrix(0.9929 -0.1191 0.1191 0.9929 -122.3145 -63.167)" class="st7" width="14.5" height="3.2"/>
		
			<rect x="-652.5" y="954.4" transform="matrix(0.9929 -0.1191 0.1191 0.9929 -118.2236 -66.316)" class="st7" width="77.1" height="3.2"/>
		
			<rect x="-653.3" y="947.7" transform="matrix(0.9929 -0.1191 0.1191 0.9929 -117.4313 -66.459)" class="st7" width="77.1" height="3.2"/>
		
			<rect x="-650.9" y="967.8" transform="matrix(0.9929 -0.1191 0.1191 0.9929 -119.8081 -66.0301)" class="st7" width="77.1" height="3.2"/>
		
			<rect x="-651.6" y="963.2" transform="matrix(0.9929 -0.1191 0.1191 0.9929 -119.3864 -68.1709)" class="st7" width="43.1" height="3.2"/>
	</g>
</g>
<g>
	<path d="M-492,934.1c2.6,0.1,4.6,0.8,5.9,2.2c1.3,1.4,2,3.5,2,6.4c0,2.8-0.7,5-2,6.4c-1.3,1.4-3.3,2.1-5.9,2.2h-5.9v-17.1
		L-492,934.1L-492,934.1z M-492.9,949.8c1.2,0,2.3-0.1,3.2-0.4c0.9-0.3,1.6-0.7,2.2-1.3c0.6-0.6,1-1.3,1.3-2.2
		c0.3-0.9,0.4-2,0.4-3.3s-0.1-2.4-0.4-3.3s-0.7-1.7-1.3-2.2c-0.6-0.6-1.3-1-2.2-1.3c-0.9-0.3-1.9-0.4-3.2-0.4h-3.5v14.4H-492.9z"/>
	<path d="M-481.5,940.7c0.3-0.5,0.6-1,1-1.3c0.4-0.3,1-0.6,1.5-0.7c0.6-0.2,1.2-0.2,2-0.2c0.5,0,1.1,0.1,1.6,0.2
		c0.5,0.1,1,0.3,1.5,0.6c0.4,0.3,0.8,0.7,1.1,1.2c0.3,0.5,0.4,1.2,0.4,2v6.6c0,0.6,0.3,0.9,0.9,0.9c0.2,0,0.3,0,0.5-0.1v1.3
		c-0.2,0-0.3,0.1-0.5,0.1c-0.1,0-0.3,0-0.5,0c-0.4,0-0.7-0.1-0.9-0.2c-0.2-0.1-0.4-0.3-0.5-0.4c-0.1-0.2-0.2-0.4-0.3-0.7
		c0-0.3-0.1-0.6-0.1-0.9l0,0c-0.3,0.4-0.5,0.8-0.8,1.1s-0.6,0.6-0.9,0.8c-0.3,0.2-0.7,0.4-1.2,0.5c-0.4,0.1-1,0.2-1.6,0.2
		s-1.1-0.1-1.6-0.2c-0.5-0.1-0.9-0.4-1.3-0.6c-0.4-0.3-0.7-0.7-0.9-1.1c-0.2-0.5-0.3-1-0.3-1.6c0-0.9,0.2-1.5,0.6-2s0.9-0.9,1.5-1.1
		c0.6-0.3,1.3-0.4,2.1-0.5c0.8-0.1,1.6-0.2,2.4-0.3c0.3,0,0.6-0.1,0.8-0.1c0.2,0,0.4-0.1,0.6-0.3c0.2-0.1,0.3-0.3,0.4-0.5
		c0.1-0.2,0.1-0.5,0.1-0.8c0-0.5-0.1-0.9-0.3-1.3c-0.2-0.3-0.4-0.6-0.7-0.8c-0.3-0.2-0.6-0.3-1-0.4s-0.8-0.1-1.3-0.1
		c-1,0-1.7,0.2-2.4,0.7c-0.6,0.5-0.9,1.2-1,2.2h-1.5C-481.9,941.9-481.8,941.3-481.5,940.7z M-473.9,944.4c-0.1,0.2-0.3,0.3-0.6,0.4
		s-0.5,0.1-0.7,0.2c-0.6,0.1-1.3,0.2-2,0.3c-0.7,0.1-1.3,0.2-1.9,0.4c-0.6,0.2-1,0.4-1.4,0.8c-0.4,0.3-0.5,0.8-0.5,1.4
		c0,0.4,0.1,0.7,0.2,1s0.4,0.6,0.6,0.8c0.3,0.2,0.6,0.4,0.9,0.5c0.3,0.1,0.7,0.2,1,0.2c0.6,0,1.1-0.1,1.7-0.3c0.5-0.2,1-0.4,1.4-0.8
		c0.4-0.3,0.7-0.7,0.9-1.2c0.2-0.5,0.3-1,0.3-1.6L-473.9,944.4L-473.9,944.4z"/>
	<path d="M-464.4,938.8v1.3h-2.5v8.4c0,0.5,0.1,0.9,0.2,1.2c0.1,0.3,0.5,0.4,1,0.5c0.4,0,0.9,0,1.3-0.1v1.3c-0.2,0-0.4,0-0.7,0
		c-0.2,0-0.4,0-0.7,0c-1,0-1.7-0.2-2.1-0.6c-0.4-0.4-0.6-1.1-0.6-2.2v-8.5h-2.2v-1.3h2.2v-3.7h1.5v3.7H-464.4L-464.4,938.8z"/>
	<path d="M-461.9,940.7c0.3-0.5,0.6-1,1-1.3c0.4-0.3,1-0.6,1.5-0.7c0.6-0.2,1.2-0.2,2-0.2c0.5,0,1.1,0.1,1.6,0.2
		c0.5,0.1,1,0.3,1.5,0.6c0.4,0.3,0.8,0.7,1.1,1.2c0.3,0.5,0.4,1.2,0.4,2v6.6c0,0.6,0.3,0.9,0.9,0.9c0.2,0,0.3,0,0.5-0.1v1.3
		c-0.2,0-0.3,0.1-0.5,0.1c-0.1,0-0.3,0-0.5,0c-0.4,0-0.7-0.1-0.9-0.2c-0.2-0.1-0.4-0.3-0.5-0.4c-0.1-0.2-0.2-0.4-0.3-0.7
		c0-0.3-0.1-0.6-0.1-0.9l0,0c-0.3,0.4-0.5,0.8-0.8,1.1s-0.6,0.6-0.9,0.8c-0.3,0.2-0.7,0.4-1.2,0.5c-0.4,0.1-1,0.2-1.6,0.2
		s-1.1-0.1-1.6-0.2c-0.5-0.1-0.9-0.4-1.3-0.6c-0.4-0.3-0.7-0.7-0.9-1.1c-0.2-0.5-0.3-1-0.3-1.6c0-0.9,0.2-1.5,0.6-2s0.9-0.9,1.5-1.1
		c0.6-0.3,1.3-0.4,2.1-0.5c0.8-0.1,1.6-0.2,2.4-0.3c0.3,0,0.6-0.1,0.8-0.1c0.2,0,0.4-0.1,0.6-0.3c0.2-0.1,0.3-0.3,0.4-0.5
		c0.1-0.2,0.1-0.5,0.1-0.8c0-0.5-0.1-0.9-0.3-1.3c-0.2-0.3-0.4-0.6-0.7-0.8c-0.3-0.2-0.6-0.3-1-0.4s-0.8-0.1-1.3-0.1
		c-1,0-1.7,0.2-2.4,0.7c-0.6,0.5-0.9,1.2-1,2.2h-1.5C-462.4,941.9-462.2,941.3-461.9,940.7z M-454.4,944.4c-0.1,0.2-0.3,0.3-0.6,0.4
		s-0.5,0.1-0.7,0.2c-0.6,0.1-1.3,0.2-2,0.3c-0.7,0.1-1.3,0.2-1.9,0.4c-0.6,0.2-1,0.4-1.4,0.8c-0.4,0.3-0.5,0.8-0.5,1.4
		c0,0.4,0.1,0.7,0.2,1s0.4,0.6,0.6,0.8c0.3,0.2,0.6,0.4,0.9,0.5c0.3,0.1,0.7,0.2,1,0.2c0.6,0,1.1-0.1,1.7-0.3c0.5-0.2,1-0.4,1.4-0.8
		c0.4-0.3,0.7-0.7,0.9-1.2c0.2-0.5,0.3-1,0.3-1.6L-454.4,944.4L-454.4,944.4z"/>
	<path d="M-431,937.5c-0.3-0.5-0.7-1-1.2-1.3c-0.5-0.4-1-0.6-1.6-0.8c-0.6-0.2-1.2-0.3-1.8-0.3c-1.1,0-2.1,0.2-2.9,0.6
		c-0.8,0.4-1.5,1-2,1.7c-0.5,0.7-0.9,1.5-1.2,2.4c-0.2,0.9-0.4,1.8-0.4,2.8c0,0.9,0.1,1.8,0.4,2.7c0.3,0.9,0.6,1.7,1.2,2.4
		c0.6,0.7,1.2,1.3,2,1.7c0.8,0.4,1.8,0.6,2.9,0.6c0.8,0,1.5-0.1,2.2-0.4c0.6-0.3,1.2-0.7,1.7-1.2s0.8-1.1,1.1-1.7
		c0.3-0.6,0.5-1.4,0.6-2.1h1.6c-0.1,1.1-0.4,2-0.7,2.9c-0.4,0.8-0.9,1.6-1.5,2.2c-0.6,0.6-1.3,1-2.1,1.4c-0.8,0.3-1.7,0.5-2.7,0.5
		c-1.3,0-2.5-0.2-3.5-0.7s-1.9-1.1-2.5-2c-0.7-0.8-1.2-1.8-1.5-2.8c-0.3-1.1-0.5-2.2-0.5-3.4c0-1.2,0.2-2.3,0.5-3.4
		c0.3-1.1,0.8-2,1.5-2.8c0.7-0.8,1.5-1.5,2.5-2s2.2-0.7,3.5-0.7c0.8,0,1.6,0.1,2.4,0.4c0.8,0.2,1.5,0.6,2.1,1.1s1.2,1.1,1.6,1.7
		c0.4,0.7,0.7,1.5,0.8,2.4h-1.6C-430.5,938.6-430.7,938-431,937.5z"/>
	<path d="M-418.5,939c0.7,0.4,1.3,0.8,1.8,1.4c0.5,0.6,0.9,1.3,1.1,2.1s0.4,1.6,0.4,2.5c0,0.9-0.1,1.7-0.4,2.5s-0.6,1.5-1.1,2.1
		c-0.5,0.6-1.1,1.1-1.8,1.4c-0.7,0.3-1.6,0.5-2.5,0.5s-1.8-0.2-2.5-0.5s-1.3-0.8-1.8-1.4c-0.5-0.6-0.9-1.3-1.1-2.1
		c-0.3-0.8-0.4-1.6-0.4-2.5c0-0.9,0.1-1.7,0.4-2.5s0.6-1.5,1.1-2.1c0.5-0.6,1.1-1.1,1.8-1.4c0.7-0.4,1.6-0.5,2.5-0.5
		S-419.2,938.6-418.5,939z M-422.9,940.2c-0.5,0.3-1,0.7-1.4,1.2s-0.6,1.1-0.8,1.7c-0.2,0.6-0.3,1.3-0.3,1.9c0,0.7,0.1,1.3,0.3,1.9
		c0.2,0.6,0.5,1.2,0.8,1.7s0.8,0.9,1.4,1.2c0.5,0.3,1.2,0.5,1.9,0.5s1.4-0.2,1.9-0.5c0.5-0.3,1-0.7,1.4-1.2s0.6-1.1,0.8-1.7
		c0.2-0.6,0.3-1.3,0.3-1.9c0-0.7-0.1-1.3-0.3-1.9c-0.2-0.6-0.5-1.2-0.8-1.7c-0.4-0.5-0.8-0.9-1.4-1.2c-0.5-0.3-1.2-0.5-1.9-0.5
		S-422.4,939.9-422.9,940.2z"/>
	<path d="M-411.4,934.1v17.1h-1.5v-17.1C-412.9,934.1-411.4,934.1-411.4,934.1z"/>
	<path d="M-406.9,934.1v17.1h-1.5v-17.1C-408.4,934.1-406.9,934.1-406.9,934.1z"/>
	<path d="M-402.9,947.1c0.2,0.6,0.4,1.1,0.7,1.6c0.3,0.5,0.8,0.8,1.3,1.2c0.5,0.3,1.1,0.5,1.8,0.5c1.1,0,2-0.3,2.6-0.9
		c0.6-0.6,1.1-1.3,1.3-2.3h1.5c-0.3,1.4-0.9,2.5-1.8,3.3s-2.1,1.2-3.6,1.2c-1,0-1.8-0.2-2.5-0.5c-0.7-0.3-1.3-0.8-1.7-1.4
		c-0.4-0.6-0.8-1.3-1-2.1c-0.2-0.8-0.3-1.6-0.3-2.5c0-0.8,0.1-1.6,0.3-2.4c0.2-0.8,0.5-1.5,1-2.1c0.4-0.6,1-1.1,1.7-1.5
		c0.7-0.4,1.6-0.6,2.5-0.6c1,0,1.8,0.2,2.5,0.6c0.7,0.4,1.3,0.9,1.7,1.6c0.4,0.6,0.8,1.4,0.9,2.2c0.2,0.8,0.3,1.7,0.2,2.6h-9.5
		C-403.1,946-403,946.5-402.9,947.1z M-395.4,942.5c-0.2-0.5-0.4-1-0.8-1.4c-0.3-0.4-0.7-0.7-1.2-1c-0.5-0.2-1-0.4-1.6-0.4
		s-1.2,0.1-1.7,0.4c-0.5,0.2-0.9,0.6-1.2,1c-0.3,0.4-0.6,0.9-0.8,1.4c-0.2,0.5-0.3,1.1-0.4,1.6h8
		C-395.1,943.6-395.2,943-395.4,942.5z"/>
	<path d="M-384,940.5c-0.6-0.5-1.3-0.8-2.4-0.8c-0.7,0-1.4,0.2-1.9,0.5c-0.5,0.3-1,0.7-1.4,1.2s-0.6,1.1-0.8,1.7
		c-0.2,0.6-0.3,1.3-0.3,1.9c0,0.7,0.1,1.3,0.3,1.9c0.2,0.6,0.5,1.2,0.8,1.7c0.4,0.5,0.8,0.9,1.4,1.2c0.5,0.3,1.2,0.5,1.9,0.5
		c0.5,0,0.9-0.1,1.3-0.3c0.4-0.2,0.8-0.4,1.1-0.7c0.3-0.3,0.6-0.7,0.8-1.1s0.3-0.9,0.4-1.4h1.5c-0.2,1.5-0.8,2.7-1.7,3.5
		c-0.9,0.8-2,1.3-3.5,1.3c-0.9,0-1.8-0.2-2.5-0.5s-1.3-0.8-1.8-1.4c-0.5-0.6-0.9-1.3-1.1-2.1c-0.3-0.8-0.4-1.6-0.4-2.5
		c0-0.9,0.1-1.7,0.4-2.5s0.6-1.5,1.1-2.1c0.5-0.6,1.1-1.1,1.8-1.4c0.7-0.4,1.6-0.5,2.5-0.5c1.3,0,2.5,0.4,3.4,1.1s1.5,1.8,1.6,3.2
		h-1.5C-383,941.8-383.4,941-384,940.5z"/>
	<path d="M-374.2,938.8v1.3h-2.5v8.4c0,0.5,0.1,0.9,0.2,1.2c0.1,0.3,0.5,0.4,1,0.5c0.4,0,0.9,0,1.3-0.1v1.3c-0.2,0-0.4,0-0.7,0
		c-0.2,0-0.4,0-0.7,0c-1,0-1.7-0.2-2.1-0.6c-0.4-0.4-0.6-1.1-0.6-2.2v-8.5h-2.2v-1.3h2.2v-3.7h1.5v3.7H-374.2L-374.2,938.8z"/>
	<path d="M-370.5,934.1v2.4h-1.5v-2.4C-372,934.1-370.5,934.1-370.5,934.1z M-370.5,938.8v12.4h-1.5v-12.4H-370.5z"/>
	<path d="M-366.1,938.8v2.1l0,0c0.3-0.8,0.8-1.4,1.5-1.8s1.5-0.7,2.4-0.7s1.6,0.1,2.2,0.3c0.6,0.2,1.1,0.5,1.4,0.9
		c0.3,0.4,0.6,0.9,0.7,1.5c0.1,0.6,0.2,1.3,0.2,2v8h-1.5v-7.7c0-0.5,0-1-0.1-1.5s-0.3-0.9-0.5-1.2c-0.2-0.3-0.6-0.6-1-0.8
		c-0.4-0.2-0.9-0.3-1.5-0.3s-1.1,0.1-1.6,0.3c-0.5,0.2-0.9,0.5-1.2,0.9c-0.3,0.4-0.6,0.8-0.8,1.3c-0.2,0.5-0.3,1.1-0.3,1.7v7.2h-1.5
		v-12.4h1.6L-366.1,938.8L-366.1,938.8z"/>
	<path d="M-344.5,952.7c-0.2,0.7-0.5,1.4-0.9,1.9s-1,0.9-1.7,1.2s-1.5,0.4-2.6,0.4c-0.6,0-1.2-0.1-1.8-0.2c-0.6-0.1-1.1-0.4-1.6-0.7
		s-0.9-0.7-1.2-1.2c-0.3-0.5-0.5-1-0.5-1.7h1.5c0.1,0.5,0.2,0.9,0.5,1.2c0.2,0.3,0.5,0.6,0.8,0.8c0.3,0.2,0.7,0.3,1.1,0.4
		s0.8,0.1,1.2,0.1c1.4,0,2.4-0.4,3-1.2c0.6-0.8,0.9-2,0.9-3.5v-1.7l0,0c-0.4,0.8-0.9,1.4-1.5,1.8s-1.5,0.7-2.4,0.7
		c-1,0-1.8-0.2-2.5-0.5s-1.3-0.8-1.7-1.4c-0.5-0.6-0.8-1.3-1-2c-0.2-0.8-0.3-1.6-0.3-2.5c0-0.8,0.1-1.7,0.4-2.4
		c0.2-0.8,0.6-1.4,1.1-2c0.5-0.6,1.1-1,1.8-1.3c0.7-0.3,1.5-0.5,2.4-0.5c0.5,0,0.9,0.1,1.3,0.2c0.4,0.1,0.8,0.3,1.1,0.5
		c0.3,0.2,0.6,0.5,0.9,0.8c0.3,0.3,0.5,0.6,0.6,1l0,0v-2.1h1.5v11.4C-344.2,951.1-344.3,951.9-344.5,952.7z M-348,949.4
		c0.5-0.3,0.9-0.6,1.2-1.1s0.6-1,0.8-1.6c0.2-0.6,0.3-1.2,0.3-1.8c0-0.6-0.1-1.2-0.2-1.8c-0.1-0.6-0.4-1.2-0.7-1.7
		c-0.3-0.5-0.7-0.9-1.2-1.2c-0.5-0.3-1.1-0.5-1.8-0.5s-1.3,0.1-1.8,0.4s-0.9,0.7-1.3,1.2c-0.3,0.5-0.6,1-0.7,1.6
		c-0.2,0.6-0.2,1.2-0.2,1.9c0,0.6,0.1,1.2,0.2,1.8c0.2,0.6,0.4,1.1,0.7,1.6c0.3,0.5,0.8,0.8,1.3,1.1s1.1,0.4,1.8,0.4
		C-349,949.8-348.5,949.6-348,949.4z"/>
</g>
<g>
	<path d="M-530.6,1165.3c2.6,0.1,4.6,0.8,5.9,2.2c1.3,1.4,2,3.5,2,6.4c0,2.8-0.7,5-2,6.4c-1.3,1.4-3.3,2.1-5.9,2.2h-5.9v-17.1
		L-530.6,1165.3L-530.6,1165.3z M-531.4,1181.1c1.2,0,2.3-0.1,3.2-0.4c0.9-0.3,1.6-0.7,2.2-1.3c0.6-0.6,1-1.3,1.3-2.2
		c0.3-0.9,0.4-2,0.4-3.3c0-1.3-0.1-2.4-0.4-3.3s-0.7-1.7-1.3-2.2c-0.6-0.6-1.3-1-2.2-1.3c-0.9-0.3-1.9-0.4-3.2-0.4h-3.5v14.4H-531.4
		L-531.4,1181.1z"/>
	<path d="M-520.1,1172c0.3-0.5,0.6-1,1-1.3c0.4-0.3,1-0.6,1.5-0.7c0.6-0.2,1.2-0.2,2-0.2c0.5,0,1.1,0.1,1.6,0.2
		c0.5,0.1,1,0.3,1.5,0.6c0.4,0.3,0.8,0.7,1.1,1.2c0.3,0.5,0.4,1.2,0.4,2v6.6c0,0.6,0.3,0.9,0.9,0.9c0.2,0,0.3,0,0.5-0.1v1.3
		c-0.2,0-0.3,0.1-0.5,0.1c-0.1,0-0.3,0-0.5,0c-0.4,0-0.7-0.1-0.9-0.2c-0.2-0.1-0.4-0.3-0.5-0.4c-0.1-0.2-0.2-0.4-0.3-0.7
		c0-0.3-0.1-0.6-0.1-0.9l0,0c-0.3,0.4-0.5,0.8-0.8,1.1c-0.3,0.3-0.6,0.6-0.9,0.8s-0.7,0.4-1.2,0.5c-0.4,0.1-1,0.2-1.6,0.2
		c-0.6,0-1.1-0.1-1.6-0.2s-0.9-0.4-1.3-0.6c-0.4-0.3-0.7-0.7-0.9-1.1c-0.2-0.5-0.3-1-0.3-1.6c0-0.9,0.2-1.5,0.6-2
		c0.4-0.5,0.9-0.9,1.5-1.1c0.6-0.3,1.3-0.4,2.1-0.5s1.6-0.2,2.4-0.3c0.3,0,0.6-0.1,0.8-0.1s0.4-0.1,0.6-0.3c0.2-0.1,0.3-0.3,0.4-0.5
		c0.1-0.2,0.1-0.5,0.1-0.8c0-0.5-0.1-0.9-0.3-1.3c-0.2-0.3-0.4-0.6-0.7-0.8c-0.3-0.2-0.6-0.3-1-0.4c-0.4-0.1-0.8-0.1-1.3-0.1
		c-1,0-1.7,0.2-2.4,0.7c-0.6,0.5-0.9,1.2-1,2.2h-1.5C-520.5,1173.2-520.3,1172.5-520.1,1172z M-512.5,1175.7
		c-0.1,0.2-0.3,0.3-0.6,0.4c-0.3,0.1-0.5,0.1-0.7,0.2c-0.6,0.1-1.3,0.2-2,0.3c-0.7,0.1-1.3,0.2-1.9,0.4c-0.6,0.2-1,0.4-1.4,0.8
		c-0.4,0.3-0.5,0.8-0.5,1.4c0,0.4,0.1,0.7,0.2,1c0.1,0.3,0.4,0.6,0.6,0.8c0.3,0.2,0.6,0.4,0.9,0.5s0.7,0.2,1,0.2
		c0.6,0,1.1-0.1,1.7-0.3c0.5-0.2,1-0.4,1.4-0.8c0.4-0.3,0.7-0.7,0.9-1.2c0.2-0.5,0.3-1,0.3-1.6L-512.5,1175.7L-512.5,1175.7z"/>
	<path d="M-503,1170.1v1.3h-2.5v8.4c0,0.5,0.1,0.9,0.2,1.2c0.1,0.3,0.5,0.4,1,0.5c0.4,0,0.9,0,1.3-0.1v1.3c-0.2,0-0.4,0-0.7,0
		s-0.4,0-0.7,0c-1,0-1.7-0.2-2.1-0.6c-0.4-0.4-0.6-1.1-0.6-2.2v-8.5h-2.2v-1.3h2.2v-3.7h1.5v3.7H-503z"/>
	<path d="M-500.5,1172c0.3-0.5,0.6-1,1-1.3c0.4-0.3,1-0.6,1.5-0.7c0.6-0.2,1.2-0.2,2-0.2c0.5,0,1.1,0.1,1.6,0.2
		c0.5,0.1,1,0.3,1.5,0.6c0.4,0.3,0.8,0.7,1.1,1.2s0.4,1.2,0.4,2v6.6c0,0.6,0.3,0.9,0.9,0.9c0.2,0,0.3,0,0.5-0.1v1.3
		c-0.2,0-0.3,0.1-0.5,0.1c-0.1,0-0.3,0-0.5,0c-0.4,0-0.7-0.1-0.9-0.2c-0.2-0.1-0.4-0.3-0.5-0.4c-0.1-0.2-0.2-0.4-0.3-0.7
		c0-0.3-0.1-0.6-0.1-0.9l0,0c-0.3,0.4-0.5,0.8-0.8,1.1c-0.3,0.3-0.6,0.6-0.9,0.8s-0.7,0.4-1.2,0.5c-0.4,0.1-1,0.2-1.6,0.2
		s-1.1-0.1-1.6-0.2s-0.9-0.4-1.3-0.6c-0.4-0.3-0.7-0.7-0.9-1.1c-0.2-0.5-0.3-1-0.3-1.6c0-0.9,0.2-1.5,0.6-2s0.9-0.9,1.5-1.1
		c0.6-0.3,1.3-0.4,2.1-0.5c0.8-0.1,1.6-0.2,2.4-0.3c0.3,0,0.6-0.1,0.8-0.1c0.2,0,0.4-0.1,0.6-0.3c0.2-0.1,0.3-0.3,0.4-0.5
		c0.1-0.2,0.1-0.5,0.1-0.8c0-0.5-0.1-0.9-0.3-1.3c-0.2-0.3-0.4-0.6-0.7-0.8c-0.3-0.2-0.6-0.3-1-0.4c-0.4-0.1-0.8-0.1-1.3-0.1
		c-1,0-1.7,0.2-2.4,0.7c-0.6,0.5-0.9,1.2-1,2.2h-1.5C-500.9,1173.2-500.8,1172.5-500.5,1172z M-492.9,1175.7
		c-0.1,0.2-0.3,0.3-0.6,0.4c-0.3,0.1-0.5,0.1-0.7,0.2c-0.6,0.1-1.3,0.2-2,0.3c-0.7,0.1-1.3,0.2-1.9,0.4c-0.6,0.2-1,0.4-1.4,0.8
		c-0.4,0.3-0.5,0.8-0.5,1.4c0,0.4,0.1,0.7,0.2,1c0.1,0.3,0.4,0.6,0.6,0.8c0.3,0.2,0.6,0.4,0.9,0.5s0.7,0.2,1,0.2
		c0.6,0,1.1-0.1,1.7-0.3c0.5-0.2,1-0.4,1.4-0.8c0.4-0.3,0.7-0.7,0.9-1.2c0.2-0.5,0.3-1,0.3-1.6L-492.9,1175.7L-492.9,1175.7z"/>
	<path d="M-474.6,1165.3l6.7,17.1h-1.8l-2.1-5.3h-7.8l-2.1,5.3h-1.7l6.9-17.1H-474.6z M-472.2,1175.8l-3.3-8.8l-3.4,8.8H-472.2z"/>
	<path d="M-465.1,1170.1v2.1l0,0c0.3-0.8,0.8-1.4,1.5-1.8c0.7-0.5,1.5-0.7,2.4-0.7s1.6,0.1,2.2,0.3c0.6,0.2,1.1,0.5,1.4,0.9
		c0.4,0.4,0.6,0.9,0.7,1.5s0.2,1.3,0.2,2v8h-1.5v-7.7c0-0.5,0-1-0.1-1.5s-0.3-0.9-0.5-1.2c-0.2-0.3-0.6-0.6-1-0.8
		c-0.4-0.2-0.9-0.3-1.5-0.3s-1.1,0.1-1.6,0.3c-0.5,0.2-0.9,0.5-1.2,0.9c-0.3,0.4-0.6,0.8-0.8,1.3c-0.2,0.5-0.3,1.1-0.3,1.7v7.2h-1.5
		v-12.4h1.6L-465.1,1170.1L-465.1,1170.1z"/>
	<path d="M-453.4,1172c0.3-0.5,0.6-1,1-1.3c0.4-0.3,1-0.6,1.5-0.7c0.6-0.2,1.2-0.2,2-0.2c0.5,0,1.1,0.1,1.6,0.2
		c0.5,0.1,1,0.3,1.5,0.6c0.4,0.3,0.8,0.7,1.1,1.2s0.4,1.2,0.4,2v6.6c0,0.6,0.3,0.9,0.9,0.9c0.2,0,0.3,0,0.5-0.1v1.3
		c-0.2,0-0.3,0.1-0.5,0.1c-0.1,0-0.3,0-0.5,0c-0.4,0-0.7-0.1-0.9-0.2c-0.2-0.1-0.4-0.3-0.5-0.4c-0.1-0.2-0.2-0.4-0.3-0.7
		c0-0.3-0.1-0.6-0.1-0.9l0,0c-0.3,0.4-0.5,0.8-0.8,1.1c-0.3,0.3-0.6,0.6-0.9,0.8s-0.7,0.4-1.2,0.5c-0.4,0.1-1,0.2-1.6,0.2
		s-1.1-0.1-1.6-0.2s-0.9-0.4-1.3-0.6c-0.4-0.3-0.7-0.7-0.9-1.1c-0.2-0.5-0.3-1-0.3-1.6c0-0.9,0.2-1.5,0.6-2s0.9-0.9,1.5-1.1
		c0.6-0.3,1.3-0.4,2.1-0.5c0.8-0.1,1.6-0.2,2.4-0.3c0.3,0,0.6-0.1,0.8-0.1c0.2,0,0.4-0.1,0.6-0.3c0.2-0.1,0.3-0.3,0.4-0.5
		c0.1-0.2,0.1-0.5,0.1-0.8c0-0.5-0.1-0.9-0.3-1.3c-0.2-0.3-0.4-0.6-0.7-0.8c-0.3-0.2-0.6-0.3-1-0.4c-0.4-0.1-0.8-0.1-1.3-0.1
		c-1,0-1.7,0.2-2.4,0.7c-0.6,0.5-0.9,1.2-1,2.2h-1.5C-453.8,1173.2-453.6,1172.5-453.4,1172z M-445.8,1175.7
		c-0.1,0.2-0.3,0.3-0.6,0.4c-0.3,0.1-0.5,0.1-0.7,0.2c-0.6,0.1-1.3,0.2-2,0.3c-0.7,0.1-1.3,0.2-1.9,0.4c-0.6,0.2-1,0.4-1.4,0.8
		c-0.4,0.3-0.5,0.8-0.5,1.4c0,0.4,0.1,0.7,0.2,1c0.1,0.3,0.4,0.6,0.6,0.8c0.3,0.2,0.6,0.4,0.9,0.5s0.7,0.2,1,0.2
		c0.6,0,1.1-0.1,1.7-0.3c0.5-0.2,1-0.4,1.4-0.8c0.4-0.3,0.7-0.7,0.9-1.2c0.2-0.5,0.3-1,0.3-1.6L-445.8,1175.7L-445.8,1175.7z"/>
	<path d="M-439.7,1165.3v17.1h-1.5v-17.1H-439.7z"/>
	<path d="M-436.6,1170.1l4.1,10.6l3.8-10.6h1.5l-5.4,14.3c-0.2,0.5-0.4,1-0.6,1.3c-0.2,0.3-0.4,0.6-0.6,0.8
		c-0.2,0.2-0.5,0.3-0.8,0.4s-0.7,0.1-1.2,0.1c-0.3,0-0.5,0-0.7,0s-0.3,0-0.4-0.1v-1.3c0.2,0,0.3,0.1,0.5,0.1s0.3,0,0.5,0
		c0.3,0,0.6,0,0.8-0.1c0.2-0.1,0.4-0.2,0.6-0.4c0.2-0.2,0.3-0.4,0.4-0.6c0.1-0.2,0.2-0.5,0.4-0.8l0.5-1.4l-4.9-12.3H-436.6z"/>
	<path d="M-416.4,1181.2v1.3h-10.3v-1.2l8.1-9.9h-7.5v-1.3h9.5v1.1l-8.2,10H-416.4z"/>
	<path d="M-413,1165.3v2.4h-1.5v-2.4H-413z M-413,1170.1v12.4h-1.5v-12.4H-413z"/>
	<path d="M-408.6,1170.1v2.1l0,0c0.3-0.8,0.8-1.4,1.5-1.8c0.7-0.4,1.5-0.7,2.4-0.7s1.6,0.1,2.2,0.3c0.6,0.2,1.1,0.5,1.4,0.9
		s0.6,0.9,0.7,1.5s0.2,1.3,0.2,2v8h-1.5v-7.7c0-0.5,0-1-0.1-1.5s-0.3-0.9-0.5-1.2c-0.2-0.3-0.6-0.6-1-0.8c-0.4-0.2-0.9-0.3-1.5-0.3
		s-1.1,0.1-1.6,0.3c-0.5,0.2-0.9,0.5-1.2,0.9c-0.3,0.4-0.6,0.8-0.8,1.3c-0.2,0.5-0.3,1.1-0.3,1.7v7.2h-1.5v-12.4h1.6L-408.6,1170.1
		L-408.6,1170.1z"/>
	<path d="M-387.1,1183.9c-0.2,0.7-0.5,1.4-0.9,1.9s-1,0.9-1.7,1.2c-0.7,0.3-1.5,0.4-2.6,0.4c-0.6,0-1.2-0.1-1.8-0.2
		c-0.6-0.1-1.1-0.4-1.6-0.7c-0.5-0.3-0.9-0.7-1.2-1.2c-0.3-0.5-0.5-1-0.5-1.7h1.5c0.1,0.5,0.2,0.9,0.5,1.2c0.2,0.3,0.5,0.6,0.8,0.8
		s0.7,0.3,1.1,0.4s0.8,0.1,1.2,0.1c1.4,0,2.4-0.4,3-1.2c0.6-0.8,0.9-2,0.9-3.5v-1.7l0,0c-0.4,0.8-0.9,1.4-1.5,1.8
		c-0.6,0.4-1.5,0.7-2.4,0.7c-1,0-1.8-0.2-2.5-0.5c-0.7-0.3-1.3-0.8-1.7-1.4c-0.4-0.6-0.8-1.3-1-2c-0.2-0.8-0.3-1.6-0.3-2.5
		c0-0.8,0.1-1.7,0.4-2.4c0.2-0.8,0.6-1.4,1.1-2c0.5-0.6,1.1-1,1.8-1.3c0.7-0.3,1.5-0.5,2.4-0.5c0.5,0,0.9,0.1,1.3,0.2
		c0.4,0.1,0.8,0.3,1.1,0.5c0.3,0.2,0.6,0.5,0.9,0.8c0.3,0.3,0.5,0.6,0.6,1l0,0v-2.1h1.5v11.4
		C-386.8,1182.4-386.9,1183.2-387.1,1183.9z M-390.5,1180.6c0.5-0.3,0.9-0.6,1.2-1.1s0.6-1,0.8-1.6c0.2-0.6,0.3-1.2,0.3-1.8
		c0-0.6-0.1-1.2-0.2-1.8s-0.4-1.2-0.7-1.7c-0.3-0.5-0.7-0.9-1.2-1.2c-0.5-0.3-1.1-0.5-1.8-0.5s-1.3,0.1-1.8,0.4
		c-0.5,0.3-0.9,0.7-1.3,1.2s-0.6,1-0.7,1.6c-0.2,0.6-0.2,1.2-0.2,1.9c0,0.6,0.1,1.2,0.2,1.8c0.2,0.6,0.4,1.1,0.7,1.6
		c0.3,0.5,0.8,0.8,1.3,1.1c0.5,0.3,1.1,0.4,1.8,0.4C-391.6,1181.1-391,1180.9-390.5,1180.6z"/>
</g>
<g>
	<path d="M-341.8,1407.4c2.6,0.1,4.6,0.9,5.8,2.3c1.3,1.4,1.9,3.6,1.8,6.4c-0.1,2.8-0.8,5-2.1,6.3c-1.4,1.4-3.3,2.1-5.9,2.1
		l-5.9-0.1l0.4-17.1L-341.8,1407.4z M-342.9,1423.1c1.2,0,2.3-0.1,3.2-0.3c0.9-0.2,1.6-0.6,2.2-1.2s1-1.3,1.3-2.2s0.5-2,0.5-3.3
		c0-1.3-0.1-2.4-0.3-3.3c-0.2-0.9-0.7-1.7-1.2-2.3s-1.3-1-2.2-1.3c-0.9-0.3-1.9-0.4-3.2-0.5l-3.5-0.1l-0.3,14.3L-342.9,1423.1z"/>
	<path d="M-331.4,1414.3c0.3-0.5,0.6-0.9,1.1-1.3c0.5-0.4,1-0.6,1.6-0.7c0.6-0.1,1.3-0.2,2-0.2c0.5,0,1.1,0.1,1.6,0.2s1,0.3,1.5,0.6
		c0.4,0.3,0.8,0.7,1,1.2c0.3,0.5,0.4,1.2,0.4,2l-0.1,6.6c0,0.6,0.3,0.9,0.9,0.9c0.2,0,0.3,0,0.5-0.1v1.3c-0.2,0-0.3,0-0.5,0.1
		c-0.1,0-0.3,0-0.5,0c-0.4,0-0.7-0.1-0.9-0.2c-0.2-0.1-0.4-0.3-0.5-0.5c-0.1-0.2-0.2-0.4-0.2-0.7c0-0.3,0-0.6,0-0.9l0,0
		c-0.3,0.4-0.6,0.7-0.9,1c-0.3,0.3-0.6,0.6-1,0.8c-0.3,0.2-0.7,0.4-1.2,0.5c-0.4,0.1-1,0.1-1.6,0.1s-1.1-0.1-1.6-0.2
		c-0.5-0.1-0.9-0.4-1.3-0.7c-0.4-0.3-0.7-0.7-0.9-1.1c-0.2-0.5-0.3-1-0.3-1.6c0-0.9,0.2-1.5,0.6-2s0.9-0.8,1.5-1.1
		c0.6-0.2,1.4-0.4,2.1-0.5s1.6-0.2,2.4-0.2c0.3,0,0.6-0.1,0.8-0.1c0.2,0,0.4-0.1,0.6-0.2s0.3-0.3,0.4-0.5c0.1-0.2,0.1-0.5,0.2-0.8
		c0-0.5-0.1-0.9-0.2-1.3c-0.2-0.3-0.4-0.6-0.7-0.8c-0.3-0.2-0.6-0.3-1-0.4c-0.4-0.1-0.8-0.1-1.3-0.1c-1,0-1.7,0.2-2.4,0.6
		c-0.6,0.4-1,1.2-1,2.2h-1.5C-331.8,1415.4-331.6,1414.8-331.4,1414.3z M-323.9,1418.1c-0.1,0.2-0.3,0.3-0.6,0.4
		c-0.3,0.1-0.5,0.1-0.7,0.2c-0.6,0.1-1.3,0.2-2,0.3s-1.3,0.2-1.9,0.4c-0.6,0.2-1,0.4-1.4,0.7c-0.4,0.3-0.6,0.8-0.6,1.4
		c0,0.4,0.1,0.7,0.2,1c0.1,0.3,0.3,0.6,0.6,0.8c0.3,0.2,0.5,0.4,0.9,0.5c0.3,0.1,0.7,0.2,1,0.2c0.6,0,1.1-0.1,1.7-0.2
		c0.5-0.2,1-0.4,1.4-0.7c0.4-0.3,0.7-0.7,1-1.2c0.2-0.5,0.4-1,0.4-1.6V1418.1L-323.9,1418.1z"/>
	<path d="M-314.3,1412.7v1.3l-2.5-0.1l-0.2,8.3c0,0.5,0,0.9,0.2,1.2c0.1,0.3,0.5,0.4,1,0.5c0.4,0,0.9,0,1.3,0v1.3
		c-0.2,0-0.4,0-0.7,0s-0.4,0-0.7,0c-1,0-1.7-0.2-2.1-0.6c-0.4-0.4-0.6-1.1-0.5-2.2l0.2-8.5h-2.2v-1.3h2.2l0.1-3.7h1.5l-0.1,3.7
		L-314.3,1412.7z"/>
	<path d="M-311.8,1414.7c0.3-0.5,0.6-0.9,1.1-1.3c0.4-0.3,1-0.6,1.6-0.7s1.3-0.2,2-0.2c0.5,0,1.1,0.1,1.6,0.2c0.5,0.1,1,0.3,1.5,0.6
		c0.5,0.3,0.8,0.7,1,1.2c0.3,0.5,0.4,1.2,0.4,2l-0.1,6.6c0,0.6,0.3,0.9,0.9,0.9c0.2,0,0.3,0,0.5-0.1v1.3c-0.2,0-0.3,0-0.5,0.1
		c-0.1,0-0.3,0-0.5,0c-0.4,0-0.7-0.1-0.9-0.2c-0.2-0.1-0.4-0.3-0.5-0.5c-0.1-0.2-0.2-0.4-0.2-0.7c0-0.3,0-0.6,0-0.9l0,0
		c-0.3,0.4-0.6,0.7-0.9,1c-0.3,0.3-0.6,0.6-1,0.8c-0.4,0.2-0.7,0.4-1.2,0.5c-0.4,0.1-1,0.1-1.6,0.1s-1.1-0.1-1.6-0.2
		s-0.9-0.4-1.3-0.7c-0.4-0.3-0.7-0.7-0.9-1.1c-0.2-0.5-0.3-1-0.3-1.6c0-0.9,0.2-1.5,0.6-2s0.9-0.8,1.5-1.1c0.6-0.3,1.4-0.4,2.1-0.5
		c0.8-0.1,1.6-0.2,2.4-0.2c0.3,0,0.6-0.1,0.8-0.1c0.2,0,0.4-0.1,0.6-0.2c0.2-0.1,0.3-0.3,0.4-0.5c0.1-0.2,0.1-0.5,0.2-0.8
		c0-0.5-0.1-0.9-0.2-1.3c-0.2-0.3-0.4-0.6-0.7-0.8c-0.3-0.2-0.6-0.3-1-0.4c-0.4-0.1-0.8-0.1-1.3-0.1c-1,0-1.7,0.2-2.4,0.6
		c-0.6,0.4-1,1.2-1,2.2h-1.5C-312.3,1415.9-312.1,1415.2-311.8,1414.7z M-304.3,1418.6c-0.1,0.2-0.3,0.3-0.6,0.4
		c-0.3,0.1-0.5,0.1-0.7,0.2c-0.6,0.1-1.3,0.2-2,0.3s-1.3,0.2-1.9,0.4c-0.6,0.2-1,0.4-1.4,0.7c-0.4,0.3-0.6,0.8-0.6,1.4
		c0,0.4,0.1,0.7,0.2,1c0.1,0.3,0.3,0.6,0.6,0.8c0.3,0.2,0.5,0.4,0.9,0.5c0.3,0.1,0.7,0.2,1,0.2c0.6,0,1.1-0.1,1.7-0.2
		c0.5-0.2,1-0.4,1.4-0.7c0.4-0.3,0.7-0.7,1-1.2c0.2-0.5,0.4-1,0.4-1.6V1418.6L-304.3,1418.6z"/>
	<path d="M-292.7,1408.5l5.2,15.5l0,0l5.9-15.2h1.7l-6.8,17h-1.9l-5.9-17.3H-292.7z"/>
	<path d="M-277.1,1413.6l-0.3,12.4h-1.5l0.3-12.4H-277.1z M-276.9,1408.8l-0.1,2.4h-1.5l0.1-2.4H-276.9z"/>
	<path d="M-267.1,1416.2c-0.2-0.3-0.4-0.6-0.7-0.9c-0.3-0.2-0.6-0.4-1-0.5s-0.8-0.2-1.2-0.2c-0.3,0-0.7,0-1,0.1s-0.7,0.2-1,0.3
		c-0.3,0.2-0.5,0.4-0.7,0.6c-0.2,0.3-0.3,0.6-0.3,1c0,0.3,0.1,0.6,0.2,0.9c0.2,0.2,0.4,0.4,0.6,0.6c0.3,0.2,0.5,0.3,0.8,0.4
		c0.3,0.1,0.6,0.2,0.8,0.3l2,0.5c0.4,0.1,0.9,0.2,1.3,0.4c0.4,0.2,0.8,0.4,1.1,0.7c0.3,0.3,0.6,0.6,0.8,1c0.2,0.4,0.3,0.9,0.3,1.4
		c0,0.7-0.2,1.2-0.5,1.7s-0.7,0.8-1.2,1.1c-0.5,0.3-1,0.5-1.6,0.6s-1.2,0.2-1.8,0.2c-1.5,0-2.6-0.4-3.5-1.1
		c-0.9-0.7-1.4-1.8-1.5-3.3h1.5c0,1,0.4,1.8,1.1,2.3s1.5,0.8,2.5,0.8c0.4,0,0.7,0,1.1-0.1s0.8-0.2,1.1-0.4c0.3-0.2,0.6-0.4,0.8-0.7
		c0.2-0.3,0.3-0.7,0.3-1.1c0-0.4-0.1-0.7-0.2-0.9c-0.1-0.3-0.3-0.5-0.6-0.6c-0.3-0.2-0.5-0.3-0.9-0.4c-0.3-0.1-0.7-0.2-1-0.3
		l-1.9-0.5c-0.5-0.1-0.9-0.3-1.4-0.5c-0.4-0.2-0.8-0.4-1.1-0.6c-0.3-0.3-0.5-0.6-0.7-0.9s-0.2-0.8-0.2-1.3c0-0.6,0.2-1.2,0.5-1.6
		c0.3-0.4,0.7-0.8,1.1-1.1c0.5-0.3,1-0.4,1.5-0.6c0.6-0.1,1.1-0.2,1.6-0.2c0.6,0,1.2,0.1,1.7,0.3c0.5,0.2,1,0.4,1.4,0.8
		c0.4,0.3,0.7,0.8,0.9,1.3c0.2,0.5,0.4,1.1,0.4,1.8h-1.5C-266.8,1417-266.9,1416.6-267.1,1416.2z"/>
	<path d="M-254.3,1426.5l0.1-2.2l0,0c-0.4,0.8-1,1.4-1.8,1.9c-0.8,0.4-1.6,0.6-2.5,0.6c-0.8,0-1.4-0.1-2-0.4c-0.5-0.2-1-0.5-1.3-1
		c-0.3-0.4-0.6-0.9-0.7-1.5s-0.2-1.2-0.2-2l0.2-8h1.5l-0.2,8.1c0,1.1,0.2,2,0.7,2.6s1.3,0.9,2.5,0.9c0.7,0,1.2-0.1,1.7-0.4
		s0.9-0.6,1.2-1.1c0.3-0.5,0.6-1,0.7-1.6c0.2-0.6,0.2-1.2,0.3-1.8l0.1-6.5h1.5l-0.3,12.4H-254.3z"/>
	<path d="M-249.5,1416.1c0.3-0.5,0.6-0.9,1.1-1.3c0.5-0.4,1-0.6,1.6-0.7s1.3-0.2,2-0.2c0.5,0,1.1,0.1,1.6,0.2c0.5,0.1,1,0.3,1.5,0.6
		c0.4,0.3,0.8,0.7,1,1.2c0.3,0.5,0.4,1.2,0.4,2l-0.1,6.6c0,0.6,0.3,0.9,0.9,0.9c0.2,0,0.3,0,0.5-0.1v1.3c-0.2,0-0.3,0-0.5,0.1
		c-0.1,0-0.3,0-0.5,0c-0.4,0-0.7-0.1-0.9-0.2c-0.2-0.1-0.4-0.3-0.5-0.5c-0.1-0.2-0.2-0.4-0.2-0.7c0-0.3,0-0.6,0-0.9l0,0
		c-0.3,0.4-0.6,0.7-0.9,1c-0.3,0.3-0.6,0.6-1,0.8c-0.3,0.2-0.7,0.4-1.2,0.5c-0.4,0.1-1,0.1-1.6,0.1s-1.1-0.1-1.6-0.2
		s-0.9-0.4-1.3-0.7c-0.4-0.3-0.7-0.7-0.9-1.1c-0.2-0.5-0.3-1-0.3-1.6c0-0.9,0.2-1.5,0.6-2c0.4-0.5,0.9-0.8,1.5-1.1
		c0.6-0.3,1.4-0.4,2.1-0.5s1.6-0.2,2.4-0.2c0.3,0,0.6-0.1,0.8-0.1s0.4-0.1,0.6-0.2c0.2-0.1,0.3-0.3,0.4-0.5c0.1-0.2,0.1-0.5,0.2-0.8
		c0-0.5-0.1-0.9-0.2-1.3c-0.2-0.3-0.4-0.6-0.7-0.8c-0.3-0.2-0.6-0.3-1-0.4c-0.4-0.1-0.8-0.1-1.3-0.1c-1,0-1.7,0.2-2.4,0.6
		c-0.6,0.4-1,1.2-1,2.2h-1.5C-249.9,1417.3-249.7,1416.7-249.5,1416.1z M-242,1420c-0.1,0.2-0.3,0.3-0.6,0.4s-0.5,0.1-0.7,0.2
		c-0.6,0.1-1.3,0.2-2,0.3s-1.3,0.2-1.9,0.4c-0.6,0.2-1,0.4-1.4,0.7c-0.4,0.3-0.6,0.8-0.6,1.4c0,0.4,0.1,0.7,0.2,1
		c0.1,0.3,0.3,0.6,0.6,0.8c0.3,0.2,0.5,0.4,0.9,0.5s0.7,0.2,1,0.2c0.6,0,1.1-0.1,1.7-0.2c0.5-0.2,1-0.4,1.4-0.7
		c0.4-0.3,0.7-0.7,1-1.2c0.2-0.5,0.4-1,0.4-1.6L-242,1420L-242,1420z"/>
	<path d="M-235.6,1409.8l-0.4,17.1h-1.5l0.4-17.1H-235.6z"/>
	<path d="M-231.3,1414.6l-0.3,12.4h-1.5l0.3-12.4H-231.3z M-231.2,1409.9l-0.1,2.4h-1.5l0.1-2.4H-231.2z"/>
	<path d="M-219.4,1426v1.3l-10.3-0.2v-1.2l8.3-9.7l-7.5-0.2v-1.3l9.5,0.2v1.1l-8.4,9.8L-219.4,1426z"/>
	<path d="M-216.4,1423.3c0.1,0.6,0.4,1.1,0.7,1.6s0.7,0.9,1.2,1.2c0.5,0.3,1.1,0.5,1.8,0.5c1.1,0,2-0.2,2.6-0.8s1.1-1.3,1.3-2.3h1.5
		c-0.4,1.4-1,2.5-1.8,3.2c-0.9,0.7-2.1,1.1-3.7,1.1c-1,0-1.8-0.2-2.5-0.6c-0.7-0.4-1.3-0.8-1.7-1.5c-0.4-0.6-0.7-1.3-0.9-2.1
		c-0.2-0.8-0.3-1.6-0.3-2.5c0-0.8,0.1-1.6,0.4-2.4c0.2-0.8,0.6-1.5,1-2.1s1.1-1.1,1.8-1.4c0.7-0.4,1.6-0.5,2.5-0.5
		c1,0,1.8,0.2,2.5,0.7s1.3,1,1.7,1.6c0.4,0.7,0.7,1.4,0.9,2.3c0.2,0.8,0.2,1.7,0.2,2.6l-9.5-0.2
		C-216.6,1422.1-216.5,1422.7-216.4,1423.3z M-208.8,1418.8c-0.2-0.5-0.4-1-0.7-1.4s-0.7-0.8-1.2-1c-0.5-0.3-1-0.4-1.6-0.4
		s-1.2,0.1-1.7,0.3c-0.5,0.2-0.9,0.6-1.2,1s-0.6,0.9-0.8,1.4s-0.4,1.1-0.4,1.6l8,0.2C-208.5,1419.9-208.6,1419.4-208.8,1418.8z"/>
</g>
<g>
	<path d="M-529.5,1127.4c-1.2,0.8-3.6,1.8-7.2,2.9l-1-3c0.4-0.1,0.8-0.2,1.1-0.3c2.7-0.7,4.8-1.5,6.2-2.2L-529.5,1127.4z
		 M-524.6,1146.6c-3.6,1-7,1.9-10.3,2.5c-0.3,0-0.7,0.1-1.1,0.2l-1.5-2.5c4.8-0.8,8.4-1.6,10.8-2.4L-524.6,1146.6z M-531.3,1124
		c-0.5-0.4-1.4-0.9-2.8-1.7l-2.5-1.3l1.9-2.2c2.2,0.8,4,1.7,5.3,2.8L-531.3,1124z M-527.4,1130.1l-1.6-1.8c4.1-1.2,6.9-3,8.4-5.3
		h-3.1c-0.2,0.1-0.3,0.2-0.4,0.3c-0.7,0.6-1.2,1.1-1.6,1.3l-2.1,1.5l-2-2.2c2.2-1.4,3.7-2.5,4.5-3.2c0.8-0.8,1.6-1.6,2.4-2.6
		l2.8,0.9l-0.6,0.9l-0.6,0.7h13.2v2.4c-0.8,0.9-1.9,1.9-3.3,2.9c-0.2,0.2-0.5,0.4-0.9,0.7l-1.8-1.8l1.5-1l1.1-0.9h-5.8l-0.3,0.5
		c1.9,1.5,3.4,2.6,4.6,3.2c1.2,0.6,3.4,1.1,6.5,1.5l-0.8,2.9l-1.4-0.3l-1.3-0.3v13.6h-23.7v-14L-527.4,1130.1L-527.4,1130.1z
		 M-513.2,1132.4h-17.5v1.6h17.5V1132.4z M-530.7,1137.8h17.5v-1.7h-17.5V1137.8z M-530.7,1141.8h17.5v-1.9h-17.5V1141.8z
		 M-519.1,1125.7l-1,1c-1.6,1.6-3.6,2.7-5.9,3.5h14.4C-514.3,1129.5-516.8,1128-519.1,1125.7z M-507.9,1149.3l-5.2-1.4
		c-0.9-0.2-2.4-0.5-4.6-1c-0.3-0.1-0.8-0.2-1.3-0.3l1.6-2.4l1.9,0.3c3.4,0.5,6.4,1.2,8.9,1.9L-507.9,1149.3z"/>
	<path d="M-490.9,1133.1c0.3,0.3,0.6,0.5,0.9,0.7c1.3,1.1,2.5,2.3,3.6,3.4c0.2,0.2,0.5,0.5,0.9,0.9l-1.7,2.4
		c-0.3-0.4-0.5-0.7-0.6-0.9c-0.5-0.7-1-1.3-1.4-1.8l-1.5-1.7v13.3h-3V1137c-0.3,0.5-0.5,0.9-0.6,1.2c-1.2,2.2-2.7,4.2-4.4,6.3
		l-1.5-3.3c2.1-2,4.2-5,6.3-8.8h-5.9v-2.8h6.2v-11.5h3v11.5h5.3v2.8h-5.6V1133.1z M-498.1,1128c-0.5-3.2-1-5.5-1.6-6.9l2.6-0.7
		c0.5,1.3,1,3.2,1.6,5.7c0.1,0.3,0.2,0.7,0.3,1.2L-498.1,1128z M-485.5,1120.8c-0.4,2.8-1,5.2-1.6,7.2l-2.8-0.8
		c0.1-0.4,0.2-0.8,0.3-1.1c0.5-1.4,0.9-3,1.2-4.8c0.1-0.3,0.2-0.7,0.3-1.2L-485.5,1120.8z M-485.8,1142.8v-3l10.6-1.6v-20.1h3v19.7
		l3.1-0.5v3l-3.1,0.5v8.5h-3v-8.1L-485.8,1142.8z M-479.2,1136.1c-1.5-1.4-3-2.6-4.5-3.5c-0.2-0.1-0.5-0.3-0.8-0.5l1.9-2.2
		c0.3,0.2,0.6,0.3,0.8,0.4c1.3,0.8,2.7,1.7,4.1,2.8c0.1,0.1,0.3,0.2,0.5,0.4L-479.2,1136.1z M-478.5,1128c-1.8-1.6-3.3-2.7-4.5-3.4
		c-0.2-0.1-0.5-0.3-0.8-0.5l1.9-2.2c1.5,0.7,3.1,1.8,4.9,3.2c0.1,0.1,0.3,0.2,0.5,0.4L-478.5,1128z"/>
	<path d="M-453.7,1118.6l2.9,1.4c-1.9,5-5.3,9.6-10,13.9l-2.3-2.9c2.7-2.3,4.7-4.5,6-6.5C-455.7,1122.6-454.5,1120.6-453.7,1118.6z
		 M-436.9,1130.6c-0.3,9.1-0.9,14.4-1.7,15.9c-0.4,0.8-1,1.4-1.7,1.7c-0.7,0.4-2.5,0.5-5.2,0.5c-1,0-1.5,0-1.7,0l-1-3.2
		c2.3,0.1,4.1,0.1,5.2,0.1c1,0,1.6-0.7,2-2c0.4-1.3,0.6-4.7,0.8-10h-7.8c-0.5,2.7-1.3,5.1-2.4,7.2s-2.8,4-5,5.8
		c-2.2,1.8-3.5,2.7-3.9,2.7l-2.2-2.8c3.3-1.7,5.6-3.6,7.1-5.7c1.5-2,2.5-4.4,3-7.2h-5.5v-3.1h20V1130.6z M-440.6,1118.9
		c1.4,2.7,2.7,4.8,3.9,6.4c1.2,1.6,2.9,3.4,4.9,5.4l-2.7,2.6c-2.8-2.8-5.5-6.6-8-11.3h-6.4v-3.1H-440.6z"/>
	<path d="M-416.5,1128.8c1.9,1.7,3.6,3.5,5.1,5.5l-1.9,2.9c-0.6-1-1.2-1.9-1.7-2.7l-1.5-2.1v17h-2.9v-16c-0.3,0.5-0.5,1-0.6,1.3
		c-1.2,2.5-2.6,4.7-4.2,6.8l-1.4-3.6c2.9-3.7,4.9-7.3,6-10.9h-5.1v-2.8h5.4v-6.2h2.9v6.2h4.5v2.8h-4.5L-416.5,1128.8L-416.5,1128.8z
		 M-399.5,1149.4h-3.1v-17.5h-5.1v0.2v0.5c0,4.3-0.3,7.6-0.8,9.8c-0.5,2.2-1.6,4.5-3.2,6.9l-2.8-2.1c1.5-2,2.5-4,2.9-6
		c0.5-2,0.7-4.7,0.7-8.3v-11.8c4.2-0.2,7.1-0.4,8.9-0.7c1.8-0.3,3.4-0.8,4.9-1.5l1.4,2.8c-3.3,1.2-7,1.9-11,2.1
		c-0.3,0-0.6,0-1.1,0.1v5.3h13.3v2.8h-5.1v17.4H-399.5z"/>
</g>
<g>
	<path d="M-337.2,1359.9l2.9,1.4c-2,5-5.3,9.6-10,13.9l-2.3-2.9c2.7-2.3,4.7-4.5,6-6.5C-339.2,1364-338.1,1362-337.2,1359.9z
		 M-320.4,1371.9c-0.3,9.1-0.9,14.4-1.7,15.9c-0.4,0.8-1,1.4-1.7,1.7c-0.7,0.3-2.5,0.5-5.2,0.5c-1,0-1.5,0-1.7,0l-1-3.2
		c2.3,0.1,4.1,0.1,5.2,0.1c1,0,1.6-0.7,2-2c0.3-1.4,0.6-4.7,0.8-10h-7.8c-0.5,2.7-1.3,5.1-2.4,7.2c-1.1,2.1-2.8,4-5,5.8
		c-2.2,1.8-3.5,2.7-3.9,2.7l-2.2-2.8c3.3-1.7,5.6-3.6,7.1-5.7c1.5-2.1,2.5-4.4,3-7.2h-5.5v-3.1L-320.4,1371.9L-320.4,1371.9z
		 M-324.1,1360.2c1.4,2.7,2.7,4.8,3.9,6.4c1.2,1.6,2.9,3.4,4.9,5.4l-2.7,2.6c-2.8-2.8-5.5-6.6-8-11.3h-6.4v-3.1H-324.1
		L-324.1,1360.2z"/>
	<path d="M-300.1,1370.1c1.9,1.7,3.6,3.5,5.1,5.5l-1.9,2.9c-0.6-1-1.2-1.9-1.7-2.7l-1.5-2.1v17h-2.9v-15.9c-0.3,0.5-0.5,1-0.6,1.3
		c-1.2,2.5-2.6,4.7-4.2,6.8l-1.4-3.6c2.9-3.7,4.9-7.3,6-10.9h-5.1v-2.8h5.4v-6.2h2.9v6.2h4.5v2.8h-4.5L-300.1,1370.1L-300.1,1370.1z
		 M-283,1390.7h-3.1v-17.5h-5.1v0.2v0.5c0,4.3-0.3,7.6-0.8,9.8c-0.5,2.2-1.6,4.5-3.2,6.9l-2.8-2.1c1.5-2,2.5-4,2.9-6
		c0.5-2,0.7-4.7,0.7-8.3v-11.8c4.2-0.2,7.1-0.4,8.9-0.7c1.8-0.3,3.4-0.8,4.9-1.5l1.4,2.8c-3.3,1.2-7,1.9-11,2.1
		c-0.3,0-0.6,0-1.1,0.1v5.3h13.4v2.8h-5.1V1390.7z"/>
	<path d="M-267.6,1382.2c-0.1,3.3-0.6,6.1-1.3,8.4l-2.8-0.8c0.7-2.2,1.2-4.4,1.5-6.6c0-0.3,0.1-0.7,0.2-1.2L-267.6,1382.2z
		 M-258.7,1365.9c-2.6,5.5-5,9.4-7.2,11.8l2-0.2c1.1-0.1,1.9-0.3,2.7-0.4l-0.5-1.2l-0.6-1.3l2.4-0.7c0.1,0.2,0.2,0.4,0.2,0.5
		c0.8,1.6,1.5,3.2,2,5c0,0.2,0.1,0.4,0.2,0.6l-2.7,0.8l-0.2-0.8l-0.2-0.5c-2.3,0.5-5.2,0.8-8.9,1.2c-0.4,0-0.9,0.1-1.5,0.2l-0.6-2.9
		l1.1-0.1l1.4-0.1c0.3-0.4,0.6-0.7,0.8-1c0.7-0.9,1.2-1.6,1.7-2.3l1.9-3l-3.2,0.3l-3,0.2l-0.5-2.9h0.9h0.7c1.7-2.7,3-5.5,3.9-8.4
		c0.1-0.2,0.2-0.5,0.3-0.9l3.2,0.9c-0.3,0.6-0.5,1.1-0.6,1.5c-1.2,2.8-2.5,5.1-3.7,6.9l1.3-0.1l2.1-0.1c0.4-0.7,0.7-1.4,1-2l0.8-2.1
		L-258.7,1365.9z M-265.6,1389.5l-0.1-3.7c0-1.5-0.1-2.7-0.3-3.7l2.4-0.2c0.3,1.3,0.5,2.5,0.6,3.6l0.3,3.8L-265.6,1389.5z
		 M-260.6,1388.6c-0.4-2.8-1-5.1-1.6-6.9l2.2-0.5c0.8,1.9,1.5,4.1,2,6.8L-260.6,1388.6z M-257.2,1373.8v-2.9h6.3v-4.4h-7.4v-2.9h7.4
		v-4.1h3.1v4.1h7.3v2.9h-7.4v4.4h6.6v2.9H-257.2z M-256.8,1376.8h15v13.9h-3v-1.6h-9v1.6h-3L-256.8,1376.8L-256.8,1376.8z
		 M-244.8,1379.7h-9v6.6h9V1379.7z"/>
	<path d="M-220.3,1376.8v-2.2H-231V1361h25v13.6h-11v2.2h13.8v2.9h-10c2.5,2.6,5.8,4.8,10,6.7l-1.7,2.9c-4.9-2.6-8.7-5.8-11.6-9.6
		h-0.5v11h-3.2v-11h-0.5c-2.6,4.2-6.5,7.5-11.9,10.1l-1.7-2.9c4.6-1.9,8.1-4.3,10.4-7.2h-10.4v-2.9H-220.3z M-220.3,1366.5v-2.6
		h-7.6v2.6H-220.3z M-220.3,1371.9v-2.9h-7.6v2.9H-220.3z M-209.2,1366.5v-2.6h-7.9v2.6H-209.2z M-209.2,1371.9v-2.9h-7.9v2.9
		H-209.2z"/>
	<path d="M-191.5,1364.9c-0.1-0.3-0.2-0.6-0.2-0.8c-0.5-1.6-1-3-1.7-4.2l3.1-0.5c0.7,1.4,1.4,3.2,2,5.5h3.7v2.5
		c-0.8,1.9-1.8,3.8-3.1,5.6c-0.1,0.1-0.2,0.3-0.3,0.5c1,0.9,1.8,1.5,2.3,2l2.1,2.1l-1.9,2.8c-0.6-0.7-1.2-1.3-1.8-2l-1.7-1.6v13.9
		h-3v-12.8c-1.1,1.2-2.2,2.3-3.3,3.2c-0.1,0.1-0.2,0.2-0.4,0.3l-1.4-3.3c3.5-2.4,6.5-5.8,9-10.3h-8.5v-2.9H-191.5z M-183.5,1380.1
		v-19.6h15.5v19.6h-3.8v6c0,0.7,0.2,1.1,0.7,1.1h1.2c0.6,0,1-0.2,1.2-0.5c0.2-0.3,0.2-1,0.3-2s0-1.8,0.1-2.6l2.7,1
		c-0.2,3.1-0.5,5-1,5.8c-0.5,0.8-1.3,1.1-2.4,1.1h-2.3c-1.3,0-2.1-0.3-2.6-0.8c-0.5-0.6-0.7-1.5-0.7-2.9v-6.1h-2.8
		c-0.3,4.5-2.5,8-6.7,10.6l-2.1-2.5c3.7-2.2,5.6-4.9,5.9-8.1L-183.5,1380.1L-183.5,1380.1z M-171,1363.4h-9.5v2.7h9.5V1363.4z
		 M-180.4,1371.5h9.5v-2.8h-9.5V1371.5z M-180.4,1377.2h9.5v-3.1h-9.5V1377.2z"/>
	<path d="M-133,1374.7v11h-6.4v1.2c0,0.5,0.3,0.7,0.9,0.7h5.6c0.5,0,0.8-0.1,0.9-0.2c0.1-0.1,0.3-1.2,0.5-3.1c0-0.2,0-0.4,0.1-0.8
		l3.2,0.8c-0.2,1.9-0.5,3.3-0.8,4.3s-1,1.5-2.2,1.5h-8.1c-1.3,0-2.1-0.3-2.5-0.8s-0.6-1.2-0.6-2.2v-1.4h-3.7c-0.7,1.3-2,2.4-3.6,3.3
		c-1.6,0.9-4.3,1.5-8,1.7l-1.4-2.7c4.8,0,7.9-0.8,9.5-2.4h-5.1v-11h21.7L-133,1374.7L-133,1374.7z M-131.8,1373.5h-24.3v4.6h-3v-7
		h1.8l-0.3-10.4c3.3-0.1,5.8-0.4,7.4-0.9l1.5,2.1c-1.3,0.4-3.1,0.6-5.4,0.8c-0.1,0-0.3,0-0.5,0v1.2h5.3v2h-5.2v1.5h5.2v1.9h-5.2
		l0.1,1.6h21.4v-1.6h-5.1v-1.9h5.1v-1.5h-5.1v-2h5.2v-1.4h-5.6v-2.3h8.5l-0.3,10.8h1.5v7h-3L-131.8,1373.5L-131.8,1373.5z
		 M-136,1376.7h-16v1.3h16V1376.7z M-151.9,1380.8h16v-1.3h-16V1380.8z M-151.9,1383.7h16v-1.4h-16V1383.7z M-143.5,1363.6l-1.8,1
		c-0.3,0.2-0.8,0.3-1.3,0.5c-0.2,0.1-0.4,0.2-0.7,0.3l-1.6-1.9l2-0.5c0.8-0.2,1.3-0.5,1.6-0.6c-0.4-0.3-0.7-0.6-1-0.7l-1.3-0.7
		l1.8-1.4l1.3,0.7c0.5,0.3,0.9,0.5,1.2,0.7l1.2-0.7l1.1-0.8l1.7,1.4c-0.5,0.4-0.9,0.7-1.3,1l-0.9,0.5l0.9,0.7l1,0.9l-1.9,1.3l-1-0.9
		L-143.5,1363.6z M-143.4,1369.1c-0.6,0.4-1.2,0.7-1.8,1l-1.9,0.9l-1.4-2l1.8-0.5c0.8-0.2,1.3-0.5,1.4-0.6l-1-0.7l-1.2-0.6l1.8-1.4
		l1.2,0.6l1.3,0.8l1.2-0.7c0.3-0.2,0.7-0.5,1-0.8c0,0,0.1-0.1,0.2-0.2l1.7,1.4c-0.2,0.1-0.3,0.2-0.4,0.3c-0.3,0.2-0.6,0.5-1,0.7
		l-1,0.6l0.9,0.6l1.1,0.9l-2,1.4c-0.2-0.1-0.3-0.2-0.3-0.3C-142.3,1369.9-142.9,1369.4-143.4,1369.1z"/>
	<path d="M-122.2,1373.6c2.5-3.3,4.7-7.4,6.7-12.2c0.2-0.5,0.5-1.2,0.8-1.9l3,1.3l-1.3,3.3c-0.5,1.3-0.9,2.3-1.3,3v23.8h-3.3v-18.5
		c-0.1,0.3-0.2,0.5-0.3,0.6c-0.8,1.7-1.7,3.1-2.7,4.2L-122.2,1373.6z M-108,1359.7h3.3v12.1c3.9-1.8,7.6-4.6,10.9-8.2l2.1,2.8
		c-3.5,3.8-7.8,6.8-13.1,9.1v9.5c0,1.2,0.7,1.9,2,1.9h5.9c0.6,0,1.1-0.1,1.3-0.3c0.2-0.2,0.5-1,0.7-2.3c0.2-1.3,0.4-3.2,0.5-5.7
		l3.4,1.1c-0.4,5-1,8-1.7,8.9c-0.7,1-2,1.4-4,1.4h-6.5c-1.9,0-3.1-0.3-3.9-1c-0.7-0.6-1.1-1.9-1.1-3.9v-25.4L-108,1359.7
		L-108,1359.7z"/>
</g>
<text transform="matrix(1 0 0 1 -498.3409 125.0867)" style="font-family:'LiGothicMed'; font-size:34px; letter-spacing:1;">資料蒐集</text>
<g>
	<path d="M-489.6,895.2c-1.2,0.8-3.6,1.8-7.2,2.9l-1-3c0.4-0.1,0.8-0.2,1.1-0.3c2.7-0.7,4.8-1.5,6.2-2.2L-489.6,895.2z
		 M-484.6,914.4c-3.6,1-7,1.9-10.3,2.5c-0.3,0-0.7,0.1-1.1,0.2l-1.5-2.5c4.8-0.8,8.4-1.6,10.8-2.4L-484.6,914.4z M-491.3,891.9
		c-0.5-0.4-1.4-0.9-2.8-1.7l-2.5-1.3l1.9-2.2c2.2,0.8,4,1.7,5.3,2.8L-491.3,891.9z M-487.4,898l-1.6-1.8c4.1-1.2,6.9-3,8.4-5.3h-3.1
		c-0.2,0.1-0.3,0.2-0.4,0.3c-0.7,0.6-1.2,1.1-1.6,1.3l-2.1,1.5l-2-2.2c2.2-1.4,3.7-2.5,4.5-3.2c0.8-0.8,1.6-1.6,2.4-2.6l2.8,0.9
		l-0.6,0.9l-0.6,0.7h13.2v2.4c-0.8,0.9-1.9,1.9-3.3,2.9c-0.2,0.2-0.5,0.4-0.9,0.7l-1.8-1.8l1.5-1l1.1-0.9h-5.8l-0.3,0.5
		c1.9,1.5,3.4,2.6,4.6,3.2c1.2,0.6,3.4,1.1,6.5,1.5l-0.8,2.9l-1.4-0.3l-1.3-0.3v13.6h-23.9v-14h6.5V898z M-473.2,900.3h-17.5v1.6
		h17.5V900.3z M-490.8,905.7h17.5V904h-17.5V905.7z M-490.8,909.7h17.5v-1.9h-17.5V909.7z M-479.1,893.6l-1,1
		c-1.6,1.6-3.6,2.7-5.9,3.5h14.4C-474.3,897.3-476.8,895.9-479.1,893.6z M-467.9,917.1l-5.2-1.4c-0.9-0.2-2.4-0.5-4.6-1
		c-0.3-0.1-0.8-0.2-1.3-0.3l1.6-2.4l1.9,0.3c3.4,0.5,6.4,1.2,8.9,1.9L-467.9,917.1z"/>
	<path d="M-450.9,900.9c0.3,0.3,0.6,0.5,0.9,0.7c1.3,1.1,2.5,2.3,3.6,3.4c0.2,0.2,0.5,0.5,0.9,0.9l-1.7,2.4
		c-0.3-0.4-0.5-0.7-0.6-0.9c-0.5-0.7-1-1.3-1.4-1.8l-1.5-1.7v13.2h-3v-12.3c-0.3,0.5-0.5,0.9-0.6,1.2c-1.2,2.2-2.7,4.2-4.4,6.3
		l-1.5-3.3c2.1-2,4.2-5,6.3-8.8h-5.9v-2.8h6.2V886h3v11.4h5.3v2.8h-5.6V900.9z M-458.2,895.8c-0.5-3.2-1-5.5-1.6-6.9l2.6-0.7
		c0.5,1.3,1,3.2,1.6,5.7c0.1,0.3,0.2,0.7,0.3,1.2L-458.2,895.8z M-445.5,888.7c-0.4,2.8-1,5.2-1.6,7.2l-2.8-0.8
		c0.1-0.4,0.2-0.8,0.3-1.1c0.5-1.4,0.9-3,1.2-4.8c0.1-0.3,0.2-0.7,0.3-1.2L-445.5,888.7z M-445.8,910.7v-3l10.6-1.6V886h3v19.7
		l3.1-0.5v3l-3.1,0.5v8.5h-3v-8.1L-445.8,910.7z M-439.2,904c-1.5-1.4-3-2.6-4.5-3.5c-0.2-0.1-0.5-0.3-0.8-0.5l1.9-2.2
		c0.3,0.2,0.6,0.3,0.8,0.4c1.3,0.8,2.7,1.7,4.1,2.8c0.1,0.1,0.3,0.2,0.5,0.4L-439.2,904z M-438.6,895.9c-1.8-1.6-3.3-2.7-4.5-3.4
		c-0.2-0.1-0.5-0.3-0.8-0.5l1.9-2.2c1.5,0.7,3.1,1.8,4.9,3.2c0.1,0.1,0.3,0.2,0.5,0.4L-438.6,895.9z"/>
	<path d="M-394.5,911.1l0.3-1.6l2.4,1.6c-0.2,1.8-0.7,3.2-1.3,4.1c-0.6,0.9-1.6,1.4-3.1,1.4h-8c-2.7,0-4-1.4-4-4.1v-6.1h-2.2
		c-0.5,3.2-1.6,5.5-3.3,7c-1.7,1.5-4.4,2.8-7.8,3.8l-1.5-3c2.6-0.6,4.8-1.4,6.4-2.5c1.7-1.1,2.8-2.9,3.2-5.3h-6.8v-12.2h10.5
		c0.3-0.5,0.6-1,0.8-1.6l0.6-1.4l3.1,0.9l-0.5,1.1l-0.5,1.1h11.6v12.1h-4.3l-0.7,1.7l-1,1.9l1.8-0.1c0.5,0,0.8-0.1,1-0.2l-0.9-1.7
		l2-0.7c0.4,0.5,0.7,1.1,1,1.6L-394.5,911.1z M-415.2,893.1V891h-7.7v-2.7h7.7V886h3.1v2.3h3.9v2.7h-3.9v2.1H-415.2z M-409,899v-2.2
		h-8.1v2.2H-409z M-409,903.7v-2.3h-8.1v2.4L-409,903.7L-409,903.7z M-402.7,893.1V891h-3.9v-2.7h3.9V886h3.1v2.3h7.7v2.7h-7.7v2.1
		H-402.7z M-397.6,899v-2.2h-8.3v2.2H-397.6z M-397.6,903.7v-2.3h-8.3v2.4L-397.6,903.7L-397.6,903.7z M-396.6,912.6l-0.3-0.9
		c-0.9,0.2-2.1,0.3-3.4,0.4l-3.6,0.3l-0.6-2.5l0.7,0.1h0.6c0.1-0.2,0.2-0.4,0.3-0.5c0.3-0.5,0.5-0.9,0.7-1.3l0.7-1.6h-3.6v6.1
		c0,0.9,0.4,1.3,1.2,1.3h6.6c0.8,0,1.4-0.1,1.7-0.3c0.3-0.2,0.6-0.7,0.8-1.4l0.2-0.7L-396.6,912.6z"/>
	<path d="M-368.3,917.2h-3.2v-8.1c-1.7,1.7-3.4,3.1-5.3,4.1s-4.3,2-7.3,2.9l-1.6-2.8c4.6-0.9,8.2-2.3,10.8-4.2h-10.3v-2.7h13.7v-1.7
		h-10.3v-8.8l-1,1.3c-0.3,0.4-0.6,0.7-1,1.1l-0.2,0.2l-1.9-3.1c2.8-2.7,5-5.8,6.6-9.4l3.2,0.6c-0.4,1-0.8,1.8-1.2,2.5
		c0,0-0.1,0.1-0.1,0.2h6.8l-0.5-1.2c-0.4-0.7-0.6-1.3-0.8-1.6l3.1-0.6l0.9,1.7l0.7,1.6h10.9v2.5h-11v1.7h9.7v2.3h-9.7v1.9h9.7v2.3
		h-9.7v2h11.6v2.6h-12.6v1.7h13.4v2.8h-10c2.7,1.8,6.2,3.1,10.5,3.9l-1.5,3.1c-5.6-1.5-9.7-3.8-12.4-7V917.2z M-370.2,893.5v-1.7
		h-8.4v1.7H-370.2z M-370.2,897.8v-1.9h-8.4v1.9H-370.2z M-370.2,902v-2h-8.4v2H-370.2z"/>
</g>
<text transform="matrix(1 0 0 1 -498.3409 164.7988)" style="font-family:'HelveticaNeue-Light'; font-size:24px;">Data Collecting</text>
<text transform="matrix(1 0 0 1 -538.9001 386.0721)" style="font-family:'HelveticaNeue-Light'; font-size:24px;">Data Analyzing</text>
<text transform="matrix(0.9997 2.284510e-02 -2.284510e-02 0.9997 -368.4397 587.9155)" style="font-family:'HelveticaNeue-Light'; font-size:23.9982px;">Data Visualiz</text>
<text transform="matrix(0.9997 2.284510e-02 -2.284510e-02 0.9997 -237.779 590.9012)" style="font-family:'HelveticaNeue-Light'; font-size:23.9982px;">e</text>
<text transform="matrix(1 0 0 1 -539.845 348.6415)" style="font-family:'LiGothicMed'; font-size:34px; letter-spacing:1;">資料分析</text>
<text transform="matrix(1 0 0 1 -366.5966 550.0283)" style="font-family:'LiGothicMed'; font-size:34px; letter-spacing:1;">分析結果視覺化</text>
<polygon class="st4" points="-392.4,1383.4 -498.5,1478.7 -672.1,1397.9 -566,1314.6 "/>
<polygon class="st6" points="-392.4,1369.5 -498.5,1464.8 -672.1,1384 -566,1300.7 "/>
<g>
	<polygon class="st8" points="-563,1284.3 -579.5,1277.8 -566,1267.4 -549.6,1273.8 	"/>
	<polygon class="st9" points="-563.2,1345.3 -579.5,1338.3 -579.5,1277.6 -563.2,1283.6 	"/>
	<polygon class="st10" points="-549.6,1334.3 -563.2,1345.3 -563.2,1283.7 -549.6,1273.6 	"/>
</g>
<g>
	<polygon class="st11" points="-584.4,1319.9 -600.8,1313.4 -587.4,1303 -571,1309.4 	"/>
	<polygon class="st12" points="-584.6,1364.3 -600.8,1357.3 -600.8,1313.5 -584.6,1319.5 	"/>
	<polygon class="st13" points="-571,1353.3 -584.6,1364.5 -584.6,1319.6 -571,1309.5 	"/>
</g>
<g>
	<polygon class="st14" points="-607,1321.4 -623.4,1314.9 -610,1304.5 -593.5,1310.9 	"/>
	<polygon class="st15" points="-607.1,1382.7 -623.4,1375.7 -623.4,1314.9 -607.1,1320.9 	"/>
	<polygon class="st16" points="-593.5,1371.7 -607.1,1382.7 -607.1,1321.1 -593.5,1310.9 	"/>
</g>
<g>
	<path class="st17" d="M-487.3,1397.7l-14.2-13.7l43.5,2.5v-6.3c0-0.9,0-4.9,0-5.9c0-11.9-28.8-12.8-49.2-12.8
		c-20.5,0-49.2,0.9-49.2,12.8c0,3.4,0,9.4,0,12.8c0,14.2,22,25.6,49.2,25.6c7.1,0,13.8-0.8,19.9-2.2L-487.3,1397.7L-487.3,1397.7z"
		/>
	<path class="st18" d="M-507.2,1374.3l48.9,2.9c0.2-0.9,0.3-1.9,0.3-2.9c0-14.2-22-25.6-49.2-25.6s-49.2,11.5-49.2,25.6
		c0,14.2,22,25.6,49.2,25.6c7.1,0,13.8-0.8,19.9-2.2L-507.2,1374.3z"/>
	<g>
		<path class="st19" d="M-466.9,1414c17.2-4,29.3-13,29.3-23.4c0-2.5,0-4.7,0-6.9l-49.2-2.9l0.2,8L-466.9,1414z"/>
		<path class="st20" d="M-437.8,1383.6l-48.9-2.9l19.9,23.4C-451.1,1400.5-439.7,1392.8-437.8,1383.6z"/>
		<polygon class="st21" points="-486.6,1380.7 -486.6,1388.7 -466.9,1414 -466.7,1404.1 		"/>
	</g>
</g>
<g>
	<g>
		<path class="st22" d="M-423,972.2c0,1,0,2,0.1,3"/>
		<path class="st23" d="M-422.1,981c4.1,21.6,20.9,40.6,10,57c-18.7,28.2-49.2,15.8-52,52.4"/>
		<path class="st22" d="M-464.3,1093.3c0,1-0.1,2-0.1,3"/>
	</g>
</g>
<g>
	<g>
		<path class="st22" d="M-226.1,1339.6c0-1-0.1-2-0.2-3"/>
		<path class="st24" d="M-227.9,1330.8c-9.4-22.9-53.3-46.5-104.8-46.5c-98.3,0-130.3-34.3-133.1-75.6"/>
		<path class="st22" d="M-465.9,1205.6c0-1,0-2,0-3"/>
	</g>
</g>
<g>
	
		<linearGradient id="SVGID_1_" gradientUnits="userSpaceOnUse" x1="381.2502" y1="524.2017" x2="585.9269" y2="117.7043" gradientTransform="matrix(-1 0 0 1 763.8093 0)">
		<stop  offset="0" style="stop-color:#D9FAFF"/>
		<stop  offset="1" style="stop-color:#FFFFFF"/>
	</linearGradient>
	<polygon class="st25" points="153.8,529.7 438.8,529.7 438.8,176.2 153.8,176.2 	"/>
	<g>
		<path class="st26" d="M438.8,176.2v353.5h-285V176.2H438.8 M452.8,162.2h-14h-285h-14v14v353.5v14h14h285h14v-14V176.2V162.2
			L452.8,162.2z"/>
	</g>
	
		<linearGradient id="SVGID_00000101065751381803254450000016113757051098640545_" gradientUnits="userSpaceOnUse" x1="20.5374" y1="391.7408" x2="340.2638" y2="261.1133" gradientTransform="matrix(-1 0 0 1 763.8093 0)">
		<stop  offset="0" style="stop-color:#D4D4D4"/>
		<stop  offset="1" style="stop-color:#F2F2F2"/>
	</linearGradient>
	<polygon style="fill:url(#SVGID_00000101065751381803254450000016113757051098640545_);" points="438.8,529.7 653.8,613.1 
		653.8,92.8 438.8,176.2 	"/>
	
		<linearGradient id="SVGID_00000065797161081948140920000004161610818125115051_" gradientUnits="userSpaceOnUse" x1="1996.5831" y1="425.9912" x2="2342.8701" y2="284.5121" gradientTransform="matrix(8.211062e-02 0 0 1 483.667 0)">
		<stop  offset="0" style="stop-color:#C9C9C9"/>
		<stop  offset="1" style="stop-color:#DBDBDB"/>
	</linearGradient>
	<polygon style="fill:url(#SVGID_00000065797161081948140920000004161610818125115051_);" points="671.4,609.7 653.8,613.1 
		653.8,92.8 671.4,96.2 	"/>
</g>
<g>
	<g>
		
			<rect x="-282.3" y="272.7" transform="matrix(4.115628e-02 -0.9992 0.9992 4.115628e-02 -521.6757 154.7772)" class="st4" width="204.2" height="153.1"/>
	</g>
	<g>
		
			<rect x="-269.4" y="269.4" transform="matrix(4.115628e-02 -0.9992 0.9992 4.115628e-02 -506.1331 164.5487)" class="st29" width="204.2" height="153.1"/>
	</g>
	<rect x="-249.4" y="239.6" class="st6" width="149.9" height="204.1"/>
	<rect x="-233.9" y="256.3" class="st30" width="27.5" height="5.2"/>
	<rect x="-233.9" y="267.8" class="st30" width="54.6" height="4.5"/>
	<rect x="-233.9" y="286.3" class="st30" width="120.4" height="4.5"/>
	<rect x="-233.9" y="296.7" class="st30" width="98.3" height="4.5"/>
	<rect x="-233.9" y="307.1" class="st30" width="120.4" height="4.5"/>
	<rect x="-233.9" y="317.5" class="st30" width="83" height="4.5"/>
	<rect x="-233.9" y="374.2" class="st30" width="120.4" height="4.5"/>
	<rect x="-233.9" y="329.6" class="st31" width="120.4" height="35.4"/>
	<rect x="-233.9" y="384.6" class="st30" width="98.3" height="4.5"/>
	<rect x="-233.9" y="395" class="st30" width="120.4" height="4.5"/>
	<rect x="-233.9" y="405.4" class="st30" width="112.4" height="4.5"/>
	<rect x="-233.9" y="416.3" class="st30" width="120.4" height="4.5"/>
	<rect x="-167.3" y="256.3" class="st30" width="27.5" height="5.2"/>
	<rect x="-167.3" y="267.8" class="st30" width="54.6" height="4.5"/>
	<polyline class="st32" points="-228.4,351.1 -206.5,334.1 -184.8,355.8 -173.8,340.5 -160,359.3 -140.1,332.9 -126.3,349.2 
		-123,343.8 -114.7,355.8 	"/>
	<polyline class="st33" points="-228.4,339.5 -206.4,342.7 -185.8,349.2 -173.8,347.3 -160.3,350.1 -139.7,340.4 -126.2,362.3 
		-122.3,357.6 -114.7,333.8 	"/>
</g>
<g>
	
		<rect x="185.3" y="56.6" transform="matrix(0.8669 -0.4986 0.4986 0.8669 -44.4571 150.8852)" class="st34" width="149.9" height="204.1"/>
	
		<rect x="185.3" y="50.1" transform="matrix(0.8669 -0.4986 0.4986 0.8669 -41.2169 150.0199)" class="st35" width="149.9" height="204.1"/>
	
		<rect x="185.3" y="43" transform="matrix(0.8669 -0.4986 0.4986 0.8669 -37.6806 149.0755)" class="st6" width="149.9" height="204.1"/>
	
		<rect x="165.7" y="93.6" transform="matrix(0.8669 -0.4986 0.4986 0.8669 -24.0709 102.2462)" class="st30" width="27.5" height="5.2"/>
	
		<rect x="169.4" y="96.9" transform="matrix(0.8669 -0.4986 0.4986 0.8669 -23.2214 111.2575)" class="st30" width="54.6" height="4.5"/>
	
		<rect x="174.2" y="96.4" transform="matrix(0.8669 -0.4986 0.4986 0.8669 -17.9928 130.0022)" class="st30" width="120.4" height="4.5"/>
	
		<rect x="180.9" y="111" transform="matrix(0.8669 -0.4986 0.4986 0.8669 -25.8194 129.7477)" class="st30" width="98.3" height="4.5"/>
	
		<rect x="184.6" y="114.5" transform="matrix(0.8669 -0.4986 0.4986 0.8669 -25.6038 137.5755)" class="st30" width="120.4" height="4.5"/>
	
		<rect x="192.3" y="132.8" transform="matrix(0.8669 -0.4986 0.4986 0.8669 -36.2096 134.528)" class="st30" width="83" height="4.5"/>
	
		<rect x="218.1" y="172.7" transform="matrix(0.8669 -0.4986 0.4986 0.8669 -50.1547 162.0044)" class="st30" width="120.4" height="4.5"/>
	
		<rect x="203.5" y="131.9" transform="matrix(0.8669 -0.4986 0.4986 0.8669 -39.4963 151.3989)" class="st31" width="120.4" height="35.4"/>
	
		<rect x="224.7" y="187.2" transform="matrix(0.8669 -0.4986 0.4986 0.8669 -57.9813 161.75)" class="st30" width="98.3" height="4.5"/>
	
		<rect x="228.4" y="190.7" transform="matrix(0.8669 -0.4986 0.4986 0.8669 -57.7658 169.5777)" class="st30" width="120.4" height="4.5"/>
	
		<rect x="234.1" y="201.7" transform="matrix(0.8669 -0.4986 0.4986 0.8669 -63.0233 171.9052)" class="st30" width="112.4" height="4.5"/>
	
		<rect x="239.1" y="209.2" transform="matrix(0.8669 -0.4986 0.4986 0.8669 -65.5619 177.3351)" class="st30" width="120.4" height="4.5"/>
	
		<rect x="223.4" y="60.4" transform="matrix(0.8669 -0.4986 0.4986 0.8669 0.1723 126.6104)" class="st30" width="27.5" height="5.2"/>
	
		<rect x="227.1" y="63.6" transform="matrix(0.8669 -0.4986 0.4986 0.8669 1.0218 135.6217)" class="st30" width="54.6" height="4.5"/>
	<polyline class="st32" points="218.2,180.2 228.8,154.5 258.4,162.5 260.3,143.7 281.6,153.2 285.8,120.4 305.8,127.6 306,121.3 
		319.1,127.6 	"/>
	<polyline class="st33" points="212.4,170.1 233.1,161.9 254.2,157.3 263.7,149.6 276.8,145.4 289.8,126.7 312.5,138.9 313.4,132.9 
		308.1,108.5 	"/>
</g>
<g>
	<polygon class="st34" points="387.3,507 242,637.5 4.2,526.8 149.5,412.7 	"/>
	<polygon class="st6" points="387.3,487.9 242,618.5 4.2,507.8 149.5,393.7 	"/>
	<g>
		<polygon class="st8" points="153.6,371.2 131,362.3 149.5,348.1 172,356.9 		"/>
		<polygon class="st9" points="153.3,454.8 131,445.2 131,362.1 153.3,370.3 		"/>
		<polygon class="st10" points="172,439.7 153.3,454.8 153.3,370.4 172,356.6 		"/>
	</g>
	<g>
		<polygon class="st11" points="124.3,420 101.8,411.1 120.2,396.8 142.7,405.6 		"/>
		<polygon class="st12" points="124,480.8 101.8,471.2 101.8,411.2 124,419.4 		"/>
		<polygon class="st13" points="142.7,465.7 124,481.1 124,419.6 142.7,405.8 		"/>
	</g>
	<g>
		<polygon class="st14" points="93.3,422.1 70.9,413.1 89.2,398.9 111.8,407.7 		"/>
		<polygon class="st15" points="93.2,506 70.9,496.4 70.9,413.1 93.2,421.4 		"/>
		<polygon class="st16" points="111.8,490.9 93.2,506 93.2,421.6 111.8,407.7 		"/>
	</g>
	<g>
		<path class="st17" d="M257.3,526.6l-19.4-18.8l59.6,3.4v-8.6c0-1.2,0-6.7,0-8.1c0-16.3-39.4-17.5-67.4-17.5
			c-28.1,0-67.4,1.2-67.4,17.5c0,4.7,0,12.9,0,17.5c0,19.4,30.1,35.1,67.4,35.1c9.7,0,18.9-1.1,27.3-3L257.3,526.6L257.3,526.6z"/>
		<path class="st18" d="M230,494.5l67,4c0.3-1.2,0.4-2.6,0.4-4c0-19.4-30.1-35.1-67.4-35.1s-67.4,15.8-67.4,35.1
			c0,19.4,30.1,35.1,67.4,35.1c9.7,0,18.9-1.1,27.3-3L230,494.5z"/>
		<g>
			<path class="st19" d="M285.2,548.9c23.6-5.5,40.1-17.8,40.1-32.1c0-3.4,0-6.4,0-9.5l-67.4-4l0.3,11L285.2,548.9z"/>
			<path class="st20" d="M325.1,507.2l-67-4l27.3,32.1C306.9,530.4,322.5,519.8,325.1,507.2z"/>
			<polygon class="st21" points="258.3,503.3 258.3,514.2 285.2,548.9 285.5,535.3 			"/>
		</g>
	</g>
</g>
<g>
	<g>
		<g class="st36">
			<rect x="390.6" y="264.7" transform="matrix(0.4894 -0.8721 0.8721 0.4894 -42.8282 575.7072)" width="159.1" height="119.4"/>
		</g>
		<g>
			
				<rect x="390.2" y="259.2" transform="matrix(0.4894 -0.8721 0.8721 0.4894 -38.2106 572.5089)" class="st37" width="159.1" height="119.4"/>
			
				<rect x="497.4" y="224.2" transform="matrix(0.4894 -0.8721 0.8721 0.4894 24.011 570.4087)" class="st38" width="3.4" height="81.1"/>
			
				<rect x="480.8" y="247.4" transform="matrix(0.4894 -0.8721 0.8721 0.4894 0.6893 564.6716)" class="st38" width="3.4" height="68.8"/>
			
				<rect x="478.7" y="257.6" transform="matrix(0.4894 -0.8721 0.8721 0.4894 -14.7258 571.1498)" class="st38" width="3.4" height="81.1"/>
			
				<rect x="488.4" y="233.9" transform="matrix(0.4894 -0.8721 0.8721 0.4894 16.1374 564.4856)" class="st38" width="3.4" height="69"/>
			
				<rect x="489.8" y="237.6" transform="matrix(0.4894 -0.8721 0.8721 0.4894 8.4108 570.6013)" class="st38" width="3.4" height="80.9"/>
			
				<rect x="482.3" y="250.9" transform="matrix(0.4894 -0.8721 0.8721 0.4894 -7.0743 570.9852)" class="st38" width="3.4" height="81.2"/>
			
				<rect x="471.1" y="270.9" transform="matrix(0.4894 -0.8721 0.8721 0.4894 -30.1494 571.382)" class="st38" width="3.4" height="81.1"/>
			
				<rect x="459.2" y="273.4" transform="matrix(0.4894 -0.8721 0.8721 0.4894 -22.8614 553.1793)" class="st38" width="3.4" height="45.4"/>
			
				<rect x="441.9" y="322.8" transform="matrix(0.4894 -0.8721 0.8721 0.4894 -90.0527 572.2435)" class="st38" width="3.4" height="80.5"/>
			
				<rect x="432.9" y="332.5" transform="matrix(0.4894 -0.8721 0.8721 0.4894 -97.8547 566.1873)" class="st38" width="3.4" height="68.2"/>
			
				<rect x="458.1" y="294.1" transform="matrix(0.4894 -0.8721 0.8721 0.4894 -57.0051 571.8625)" class="st38" width="3.4" height="81.1"/>
			
				<rect x="461.6" y="287.9" transform="matrix(0.4894 -0.8721 0.8721 0.4894 -49.8667 571.7326)" class="st38" width="3.4" height="81.1"/>
			
				<rect x="451.2" y="306.5" transform="matrix(0.4894 -0.8721 0.8721 0.4894 -71.3773 572.131)" class="st38" width="3.4" height="81.1"/>
			
				<rect x="439.1" y="309.3" transform="matrix(0.4894 -0.8721 0.8721 0.4894 -64.4248 553.9512)" class="st38" width="3.4" height="45.4"/>
		</g>
	</g>
	<g>
		
			<rect x="444.1" y="306.1" transform="matrix(0.4894 -0.8721 0.8721 0.4894 -55.0509 673.4367)" class="st39" width="207" height="155.2"/>
		
			<rect x="442.5" y="292.7" transform="matrix(0.4894 -0.8721 0.8721 0.4894 -44.1383 665.2789)" class="st6" width="207" height="155.2"/>
		
			<rect x="581.9" y="247" transform="matrix(0.4894 -0.8721 0.8721 0.4894 36.8537 662.3906)" class="st7" width="4.4" height="105.4"/>
		
			<rect x="567.3" y="273.1" transform="matrix(0.4894 -0.8721 0.8721 0.4894 6.6583 662.9772)" class="st7" width="4.4" height="105.4"/>
		
			<rect x="557.4" y="290.6" transform="matrix(0.4894 -0.8721 0.8721 0.4894 -13.6447 663.3419)" class="st7" width="4.4" height="105.4"/>
		
			<rect x="556.8" y="267.6" transform="matrix(0.4894 -0.8721 0.8721 0.4894 26.3544 639.1099)" class="st7" width="4.4" height="58.9"/>
		
			<rect x="551.8" y="276.2" transform="matrix(0.4894 -0.8721 0.8721 0.4894 16.3155 639.2388)" class="st7" width="4.4" height="58.9"/>
		
			<rect x="542.1" y="293.6" transform="matrix(0.4894 -0.8721 0.8721 0.4894 -3.8495 639.601)" class="st7" width="4.4" height="58.9"/>
		
			<rect x="547.8" y="307.8" transform="matrix(0.4894 -0.8721 0.8721 0.4894 -33.5761 663.6932)" class="st7" width="4.4" height="105.4"/>
		
			<rect x="532.3" y="311.2" transform="matrix(0.4894 -0.8721 0.8721 0.4894 -24.144 640.0611)" class="st7" width="4.4" height="58.9"/>
		
			<rect x="487.1" y="388.5" transform="matrix(0.4894 -0.8721 0.8721 0.4894 -112.0217 638.5225)" class="st7" width="4.4" height="52.8"/>
		
			<rect x="472.1" y="403.2" transform="matrix(0.4894 -0.8721 0.8721 0.4894 -122.2866 626.9944)" class="st7" width="4.4" height="29.5"/>
		
			<rect x="540.6" y="427.2" transform="matrix(0.4894 -0.8721 0.8721 0.4894 -110.8638 700.5084)" class="st7" width="4.4" height="35.5"/>
		
			<rect x="528.8" y="439.8" transform="matrix(0.4894 -0.8721 0.8721 0.4894 -121.0421 692.6595)" class="st7" width="4.4" height="19.8"/>
		
			<rect x="530.8" y="338.1" transform="matrix(0.4894 -0.8721 0.8721 0.4894 -68.681 664.3282)" class="st7" width="4.4" height="105.4"/>
		
			<rect x="535.4" y="329.9" transform="matrix(0.4894 -0.8721 0.8721 0.4894 -59.1354 664.1639)" class="st7" width="4.4" height="105.4"/>
		
			<rect x="521.8" y="354" transform="matrix(0.4894 -0.8721 0.8721 0.4894 -87.1669 664.6324)" class="st7" width="4.4" height="105.4"/>
		
			<rect x="506" y="357.9" transform="matrix(0.4894 -0.8721 0.8721 0.4894 -78.3238 640.9738)" class="st7" width="4.4" height="58.9"/>
	</g>
	<g>
		<path class="st40" d="M555.1,378.1c-17,21.9-12.9,53.4,9,70.4s53.4,12.9,70.4-9s12.9-53.4-9-70.4S572.1,356.2,555.1,378.1z
			 M624.8,431.9c-12.8,16.6-36.5,19.6-53.1,6.8c-16.6-12.8-19.6-36.5-6.8-53.1c12.8-16.6,36.5-19.6,53.1-6.8
			C634.4,391.6,637.5,415.4,624.8,431.9z"/>
		
			<rect x="635.1" y="435.9" transform="matrix(0.6118 -0.791 0.791 0.6118 -103.0204 679.6786)" class="st40" width="11.8" height="17.9"/>
		<path class="st41" d="M697.1,479.6l-8.2,10.4c-0.8,1.1-2.5,1.3-3.6,0.4l-47.2-38c-1.1-0.8-1.2-2.4-0.4-3.5l6.6-8.5
			c0.8-1.1,2.4-1.3,3.4-0.5l48.6,36.1C697.6,476.8,697.9,478.4,697.1,479.6z"/>
		
			<rect x="641.2" y="449.4" transform="matrix(0.6118 -0.791 0.791 0.6118 -104.5839 688.6466)" class="st42" width="16.2" height="2.9"/>
		
			<rect x="676.3" y="477.2" transform="matrix(0.6118 -0.791 0.791 0.6118 -112.6305 727.8093)" class="st43" width="17.9" height="2.9"/>
		
			<rect x="671.8" y="473.9" transform="matrix(0.6118 -0.791 0.791 0.6118 -111.7811 722.9966)" class="st43" width="17.9" height="2.9"/>
		<path class="st44" d="M573.9,377.4c-17.4,11.8-21.9,35.5-10.1,52.9c11.8,17.4,35.5,21.9,52.9,10.1L573.9,377.4z"/>
	</g>
</g>
</svg>
