<?xml version="1.0" encoding="utf-8"?>
<!-- Generator: $$$/GeneralStr/196=Adobe Illustrator 27.6.0, SVG Export Plug-In . SVG Version: 6.00 Build 0)  -->
<svg version="1.1" id="圖層_1" xmlns="http://www.w3.org/2000/svg" xmlns:xlink="http://www.w3.org/1999/xlink" x="0px" y="0px"
	 viewBox="0 0 1203.5 768" style="enable-background:new 0 0 1203.5 768;" xml:space="preserve">
<style type="text/css">
	.st0{opacity:6.000000e-02;}
	.st1{fill:none;stroke:#000000;stroke-width:2;stroke-miterlimit:10;}
	.st2{fill:#FFFFFF;stroke:#000000;stroke-width:2;stroke-linecap:round;stroke-linejoin:round;stroke-miterlimit:10;}
</style>
<g class="st0">
	<path class="st1" d="M1203.9,24.2c-326.4,0-306.1,123.3-602.9,123.3S380.5,24.2-0.1,24.2"/>
	<path class="st1" d="M1203.9,515.7c-326.4,0-417.1-238.8-713.8-238.8S201.2,515.7-0.1,515.7"/>
	<path class="st1" d="M1203.9,574c-326.4,0-417.1,74.8-713.8,74.8S201.2,574-0.1,574"/>
	<path class="st1" d="M1203.9,219.4c-199.2,0-275.5,228.3-457.8,228.3c-161.5,0-305.7-120.4-446.3-182.1C182.2,214,70,219.3,0,219.3
		"/>
	<path class="st2" d="M1139.5,32V19.6c0-3.1,2.7-5.7,6-5.7h13.1c3.3,0,6,2.5,6,5.7V32c0,3.1-2.7,5.7-6,5.7h-13
		C1142.1,37.7,1139.5,35.1,1139.5,32z"/>
	<path class="st2" d="M565.8,279.8l9.2-8.8c2.3-2.2,6.1-2.2,8.5,0l9.2,8.8c2.3,2.2,2.3,5.8,0,8.1l-9.2,8.8c-2.3,2.2-6.1,2.2-8.5,0
		l-9.2-8.8C563.4,285.6,563.4,282,565.8,279.8z"/>
	<path class="st2" d="M203.7,386.6l9.2-8.8c2.3-2.2,6.1-2.2,8.5,0l9.2,8.8c2.3,2.2,2.3,5.8,0,8.1l-9.2,8.8c-2.3,2.2-6.1,2.2-8.5,0
		l-9.2-8.8C201.3,392.5,201.3,388.9,203.7,386.6z"/>
	<path class="st2" d="M328.5,102.6V83.7c0-5.4,4.7-9.9,10.4-9.9h19.8c5.7,0,10.4,4.4,10.4,9.9v18.9c0,5.4-4.7,9.9-10.4,9.9h-19.8
		C333.1,112.4,328.5,108,328.5,102.6z"/>
	<ellipse class="st2" cx="752.3" cy="445.7" rx="15.9" ry="15.2"/>
	<path class="st2" d="M942.7,577.2l-9.1,15c-2.6,4.3,0.7,9.6,5.9,9.6h18.2c5.2,0,8.5-5.3,5.9-9.6l-9.1-15
		C951.9,572.9,945.3,572.9,942.7,577.2z"/>
	<path class="st2" d="M363.2,631l-9.1,15c-2.6,4.3,0.7,9.6,5.9,9.6h18.2c5.2,0,8.5-5.3,5.9-9.6l-9.1-15
		C372.3,626.8,365.8,626.8,363.2,631z"/>
</g>
</svg>
