<?xml version="1.0" encoding="utf-8"?>
<!-- Generator: $$$/GeneralStr/196=Adobe Illustrator 27.6.0, SVG Export Plug-In . SVG Version: 6.00 Build 0)  -->
<svg version="1.1" id="圖層_1" xmlns="http://www.w3.org/2000/svg" xmlns:xlink="http://www.w3.org/1999/xlink" x="0px" y="0px"
	 viewBox="0 0 100 100" style="enable-background:new 0 0 100 100;" xml:space="preserve">
<style type="text/css">
	.st0{fill:#0055FF;}
</style>
<path class="st0" d="M78.4,5.7l19.2-5.6c1.4-0.4,2.7,0.9,2.3,2.3l-5.6,19.2c-5.4,18.5-5.4,38.3,0,56.8l5.6,19.2
	c0.4,1.4-0.9,2.7-2.3,2.3l-19.2-5.6c-18.5-5.4-38.3-5.4-56.8,0L2.4,99.9C1,100.3-0.3,99,0.1,97.6l5.6-19.2c5.4-18.5,5.4-38.3,0-56.8
	L0.1,2.4C-0.3,1,1-0.3,2.4,0.1l19.2,5.6C40.1,11.1,59.9,11.1,78.4,5.7z"/>
</svg>
