<?xml version="1.0" encoding="utf-8"?>
<!-- Generator: $$$/GeneralStr/196=Adobe Illustrator 27.6.0, SVG Export Plug-In . SVG Version: 6.00 Build 0)  -->
<svg version="1.1" id="圖層_2" xmlns="http://www.w3.org/2000/svg" xmlns:xlink="http://www.w3.org/1999/xlink" x="0px" y="0px"
	 viewBox="0 0 700 700" style="enable-background:new 0 0 700 700;" xml:space="preserve">
<style type="text/css">
	.st0{opacity:0.6;fill:url(#SVGID_1_);}
	.st1{fill:#1F995E;}
	.st2{fill:#FFA300;}
	.st3{fill:#3D97C9;}
	.st4{opacity:0.1;}
	.st5{fill:url(#SVGID_00000034778286748515360840000014888423840132662953_);}
	.st6{fill:url(#SVGID_00000129909188444477528830000016424362671058005415_);}
	.st7{fill:url(#SVGID_00000128450503731542283560000011480208894671536033_);}
	.st8{fill:#B3B9C4;}
	.st9{opacity:0.2;fill:#FFFFFF;}
	.st10{opacity:0.2;}
	.st11{fill:#043477;}
	.st12{fill:#EFB789;}
	.st13{fill:#2A403F;}
	.st14{fill:#1E293A;}
	.st15{fill:#FF794A;}
	.st16{opacity:0.5;fill:#F8F8F8;}
	.st17{fill:#7C7037;}
	.st18{fill:#94A08A;}
</style>
<linearGradient id="SVGID_1_" gradientUnits="userSpaceOnUse" x1="317.9091" y1="9.9416" x2="313.3226" y2="629.1138">
	<stop  offset="0" style="stop-color:#A5D0E2;stop-opacity:0.4"/>
	<stop  offset="1" style="stop-color:#C055FF;stop-opacity:0.1"/>
</linearGradient>
<path class="st0" d="M315.6,1.2C141.8,1.2,0.9,142.2,0.9,316s140.9,314.8,314.8,314.8S630.4,489.9,630.4,316S489.5,1.2,315.6,1.2z
	 M315.6,529c-117.6,0-213-95.4-213-213s95.4-213,213-213c117.6,0,213,95.4,213,213S433.3,529,315.6,529z"/>
<g>
	<path class="st1" d="M317.6,650c-71.7,0-139.8-22.7-197-65.5l81.4-108.7c33.6,25.1,73.6,38.4,115.7,38.4
		c41.7,0,81.5-13.1,114.9-37.8c32.4-24,56.9-58.1,69.1-96.2l129.2,41.5c-21.2,65.8-61.8,122.4-117.6,163.8
		C456.3,627.7,388.6,650,317.6,650z"/>
</g>
<g>
	<path class="st2" d="M647.9,426.4l-161.6-51.9c5.6-17.4,8.4-35.5,8.4-54c0-51.9-22.7-100.9-62.3-134.5L542.2,56.6
		c77.7,65.9,122.2,162.1,122.2,263.9C664.4,356.7,658.9,392.3,647.9,426.4z"/>
</g>
<g>
	<path class="st3" d="M377,202.5C327.3,175,268.2,170.7,215,190.9l-48.1-127c90.6-34.3,191.2-27.1,275.9,19.8L377,202.5z"/>
</g>
<g class="st4">
	
		<linearGradient id="SVGID_00000181047026606214304150000007131843002047151533_" gradientUnits="userSpaceOnUse" x1="120.5318" y1="515.0711" x2="630.8214" y2="515.0711">
		<stop  offset="0" style="stop-color:#FFFFFF"/>
		<stop  offset="1" style="stop-color:#000000"/>
	</linearGradient>
	<path style="fill:url(#SVGID_00000181047026606214304150000007131843002047151533_);" d="M317.6,650c-71.7,0-139.8-22.7-197-65.5
		l81.4-108.7c33.6,25.1,73.6,38.4,115.7,38.4c41.7,0,81.5-13.1,114.9-37.8c32.4-24,56.9-58.1,69.1-96.2l129.2,41.5
		c-21.2,65.8-61.8,122.4-117.6,163.8C456.3,627.7,388.6,650,317.6,650z"/>
</g>
<g class="st4">
	
		<linearGradient id="SVGID_00000000925318608555540650000017417464187008578696_" gradientUnits="userSpaceOnUse" x1="498.6126" y1="97.7589" x2="606.4603" y2="407.4754">
		<stop  offset="0" style="stop-color:#FFFFFF"/>
		<stop  offset="1" style="stop-color:#000000"/>
	</linearGradient>
	<path style="fill:url(#SVGID_00000000925318608555540650000017417464187008578696_);" d="M647.9,426.4l-161.6-51.9
		c5.6-17.4,8.4-35.5,8.4-54c0-51.9-22.7-100.9-62.3-134.5L542.2,56.6c77.7,65.9,122.2,162.1,122.2,263.9
		C664.4,356.7,658.9,392.3,647.9,426.4z"/>
</g>
<g class="st4">
	
		<linearGradient id="SVGID_00000067950974775502890410000018067456021768898979_" gradientUnits="userSpaceOnUse" x1="166.9032" y1="122.5148" x2="442.7653" y2="122.5148">
		<stop  offset="0" style="stop-color:#FFFFFF"/>
		<stop  offset="1" style="stop-color:#000000"/>
	</linearGradient>
	<path style="fill:url(#SVGID_00000067950974775502890410000018067456021768898979_);" d="M377,202.5
		C327.3,175,268.2,170.7,215,190.9l-48.1-127c90.6-34.3,191.2-27.1,275.9,19.8L377,202.5z"/>
</g>
<g>
	<g>
		<path class="st8" d="M189.3,685.9c-0.1,0-0.2,0-0.3,0c-1.4-0.2-2.4-1.5-2.2-2.9l51.7-380.3c0.2-1.4,1.5-2.4,2.9-2.2
			c1.4,0.2,2.4,1.5,2.2,2.9l-51.7,380.3C191.7,685,190.6,685.9,189.3,685.9z"/>
	</g>
	<g>
		<path class="st8" d="M272,693.1c-0.1,0-0.2,0-0.3,0c-1.4-0.2-2.4-1.5-2.2-2.9l51.7-380.3c0.2-1.4,1.5-2.4,2.9-2.2
			c1.4,0.2,2.4,1.5,2.2,2.9l-51.7,380.3C274.3,692.1,273.2,693.1,272,693.1z"/>
	</g>
	<g>
		<path class="st8" d="M318.4,350.5c0,0-0.1,0-0.1,0l-82.9-4.2c-1.4-0.1-2.5-1.3-2.4-2.7c0.1-1.4,1.3-2.5,2.7-2.4l82.9,4.2
			c1.4,0.1,2.5,1.3,2.4,2.7C320.9,349.4,319.7,350.5,318.4,350.5z"/>
	</g>
	<g>
		<path class="st8" d="M311.2,400.1c0,0-0.1,0-0.1,0l-82.9-4.2c-1.4-0.1-2.5-1.3-2.4-2.7c0.1-1.4,1.3-2.5,2.7-2.4l82.9,4.2
			c1.4,0.1,2.5,1.3,2.4,2.7C313.7,399,312.6,400.1,311.2,400.1z"/>
	</g>
	<g>
		<path class="st8" d="M304.1,449.8c0,0-0.1,0-0.1,0l-81.4-4.2c-1.4-0.1-2.5-1.3-2.4-2.7c0.1-1.4,1.3-2.5,2.7-2.4l81.4,4.2
			c1.4,0.1,2.5,1.3,2.4,2.7C306.6,448.7,305.4,449.8,304.1,449.8z"/>
	</g>
	<g>
		<path class="st8" d="M298.5,499.4c0,0-0.1,0-0.1,0l-82.9-4.2c-1.4-0.1-2.5-1.3-2.4-2.7c0.1-1.4,1.3-2.5,2.7-2.4l82.9,4.2
			c1.4,0.1,2.5,1.3,2.4,2.7C301,498.3,299.8,499.4,298.5,499.4z"/>
	</g>
	<g>
		<path class="st8" d="M291.4,549c0,0-0.1,0-0.1,0l-82.9-4.2c-1.4-0.1-2.5-1.3-2.4-2.7c0.1-1.4,1.3-2.5,2.7-2.4l82.9,4.2
			c1.4,0.1,2.5,1.3,2.4,2.7C293.8,547.9,292.7,549,291.4,549z"/>
	</g>
	<g>
		<path class="st8" d="M284.2,598.6c0,0-0.1,0-0.1,0l-82.9-4.2c-1.4-0.1-2.5-1.3-2.4-2.7c0.1-1.4,1.3-2.5,2.7-2.4l82.9,4.2
			c1.4,0.1,2.5,1.3,2.4,2.7C286.7,597.5,285.6,598.6,284.2,598.6z"/>
	</g>
	<g>
		<path class="st8" d="M277.1,648.2c0,0-0.1,0-0.1,0l-82.9-4.2c-1.4-0.1-2.5-1.3-2.4-2.7c0.1-1.4,1.3-2.5,2.7-2.4l82.9,4.2
			c1.4,0.1,2.5,1.3,2.4,2.7C279.5,647.1,278.4,648.2,277.1,648.2z"/>
	</g>
</g>
<circle class="st9" cx="269" cy="123.9" r="17.8"/>
<circle class="st9" cx="319.9" cy="125.6" r="19.5"/>
<g class="st10">
	<path d="M277.5,128.1c-0.2,0-0.3,0-0.5-0.1l-17-3.4c-1.4-0.3-2.3-1.6-2-3c0.3-1.4,1.6-2.3,3-2l17,3.4c1.4,0.3,2.3,1.6,2,3
		C279.7,127.3,278.7,128.1,277.5,128.1z"/>
</g>
<g class="st10">
	<path d="M311.3,130.7c-1.1,0-2.2-0.8-2.5-1.9c-0.3-1.4,0.5-2.7,1.8-3.1l16.8-4.2c1.4-0.3,2.7,0.5,3.1,1.8c0.3,1.4-0.5,2.7-1.8,3.1
		l-16.8,4.2C311.7,130.7,311.5,130.7,311.3,130.7z"/>
</g>
<g>
	<path class="st11" d="M259.3,250.7c0,0-4.4,4.3-6.9,21.7c-2.5,17.3-3.3,30.4-3.9,40.5s-6.6,12.7-6.5,24.4c0,11.6-3.7,45.5-3.7,45.5
		l8.2,0.5c0,0,10.5-18.7,15.3-47.7c4.5-27.4,13.3-53.1,13.3-53.1s9.8,31.1,9.2,41.3c-0.6,10.2-2.2,13.2,1.4,26.4c3.6,13.2,5,38,5,38
		l10.7,0.6c0,0,4.9-43.4,1.9-65.4c-3.1-22,7.6-54.8-7.4-71.7C280.8,234.8,259.3,250.7,259.3,250.7z"/>
	<path class="st12" d="M267.8,159.7c-1.8,5.5,6.7,9.2,6.3,15s-0.5,7.6-0.5,7.6l11.6,0.4c0,0-2.9-0.2,1.8-5.7
		c4.7-5.5,11.1-6.5,8.5-15.5c-2.5-8.9-6.5-15-15.4-12.7C271.3,151.2,269.7,154,267.8,159.7z"/>
	<path class="st13" d="M283.3,143.3c-7.3-0.4-13.2,2.1-15,7.8c-1.8,5.7-2.1,10.1,0.6,14.6c2.6,4.5,4.2,6.8,12.1,6.9
		c7.9,0.1,10.9-1.2,12.5-4c1.6-2.8-1.2-4.4-0.9-8.8c0.3-4.4,1.7-4.3,3.3-7.1C297.5,149.9,296.4,144,283.3,143.3z"/>
	<path class="st14" d="M238.9,380.6c0,0-8.9,11.8-2.3,12.4c6.6,0.6,11.5,1.3,17.3,0.2c6.1-4-4-6.1-5.4-11.8
		C243.3,376.6,238.9,380.6,238.9,380.6z"/>
	<path class="st14" d="M292.3,383.8c0,0-8.4,11.8-2.1,12.4c6.3,0.6,10.9,1.4,16.5,0.3c5.7-4-3.8-6.1-5.2-11.9
		C296.5,379.8,292.3,383.8,292.3,383.8z"/>
	<path class="st12" d="M240.5,178.6c0,0-5.9-8.7-3.5-14.8c5.1-12.8,16.2-28.1,19.4-32.3c3.2-4.2,3.6-11.4,9.6-14
		c6-2.6,5.6,3.2,4.1,4.6s-6.1,4-4.7,5.5s3.8-0.4,4.5-1.2c1.7,0,5.1,0,3.4,1.7c-3.1,2.7-5.2,2.6-8.1,3.9c-3,1.3-3.1,2.7-6.4,9.8
		c-3.3,7.1-9.9,19.8-10.1,22.7s4.9,6.6,5,10S244.4,186.1,240.5,178.6z"/>
	<path class="st12" d="M318.4,188.4c0,0,9.2-5.4,9.6-11.9c1-13.9-2.2-32.7-3.3-37.9s1.9-12.4-2.3-17.3s-6.6,0.9-5.8,2.8
		c0.8,1.9,3.8,6.6,1.8,7.1c-1,0.3-2.5-0.4-2.7-1.4c0,0-1.7,0-3.4,0c1.7,3.4,2.3,3,4.5,5.5c2.1,2.5,1.6,3.8,1.5,11.7
		c-0.1,7.9,0.2,22.3-0.9,25s-7.3,3.9-8.9,6.9C306.9,182.1,311.6,193.5,318.4,188.4z"/>
	<path class="st15" d="M241.1,180.8c0,0,16.4,18.4,16.1,22.8c-0.3,4.4,7.7,21.9-3.2,53.7c24.4,5.8,48.8,2.9,48.8,2.9
		s-8.8-39.8-0.7-53.9c4.9-8.4,21.2-20.6,21.2-20.6s-3.3-11.8-15-11.1c-4.5,2.6-7.7,6.8-13.5,6.5s-7-4.8-7-4.8s-4.6,4.1-13.1,0.7
		c-4.6,4.1-9,3.8-13.1,0.7c-4.2-3.2-8-6.4-8-6.4S244.8,167.9,241.1,180.8z"/>
	<path class="st16" d="M291.6,205.7l0.8,0.2l-0.8,0.2c-5.5,1.2-9.7,5.6-10.6,11.1l-1.1,6.3l-0.8-6.4c-0.7-5.6-4.7-10.1-10.1-11.6
		l-0.8-0.2l0.8-0.2c5.5-1.2,9.7-5.6,10.6-11.1l1.1-6.3l0.8,6.4C282.2,199.6,286.2,204.2,291.6,205.7z"/>
</g>
<g>
	<path class="st17" d="M612.1,525c0,0,6.8,5.4,9.3,26.3c2.4,21,1.2,36.7,1.6,49c0.4,12.3,7.5,15.6,7.1,29.6s2.9,54.9,2.9,54.9
		l-9.8,0.3c0,0-12-22.9-16.8-58c-4.6-33.2-14.3-64.4-14.3-64.4s-12.8,37.2-12.5,49.5c0.4,12.3,2.3,16-2.5,31.7s-7.3,45.7-7.3,45.7
		l-12.9,0.4c0,0-4.5-52.4-0.1-78.9c4.4-26.4-7.4-66.4,11.3-86.2C586.6,505.1,612.1,525,612.1,525z"/>
	<path class="st12" d="M604.8,415c2,6.7-8.3,10.8-8.1,17.8s0.4,9.2,0.4,9.2l-14,0.1c0,0,3.5-0.1-2-6.9c-5.5-6.8-13.1-8.3-9.8-18.9
		c3.4-10.6,8.3-17.8,19-14.8C600.9,404.6,602.7,408.1,604.8,415z"/>
	<path class="st13" d="M586.6,394.7c8.8,0.1,15.9,3,17.8,10c2,6.9,2.1,12.2-1.2,17.6c-3.3,5.4-5.3,8-14.8,7.9
		c-9.5-0.1-13-1.8-14.9-5.2c-1.9-3.4-3.2-4.7-3.4-10s0.7-7.7,1.7-11.9C572.8,399.2,578.7,394.5,586.6,394.7z"/>
	<path class="st14" d="M632.3,682.2c0,0,10.3,14.6,2.3,15c-8,0.5-13.9,1.2-20.9-0.3c-7.2-5,5-7.2,6.9-14.1
		C627.1,677.3,632.3,682.2,632.3,682.2z"/>
	<path class="st14" d="M567.9,684.3c0,0,9.7,14.5,2.1,15s-13.2,1.3-19.9-0.2c-6.8-5,4.8-7.2,6.6-14.1
		C562.9,679.4,567.9,684.3,567.9,684.3z"/>
	<path class="st12" d="M630.1,446.3c0,0,12.6-1.9,16-8.9c7.2-15,11.8-37.4,12.9-43.6s7.2-12.5,4.6-19.9s-7.5-2.4-7.4,0.1
		c0,2.5,1.4,8.6-1.1,8.7c-2.5,0-2.7-3.7-2.6-5c-0.2-3.6-4.2-4.5-4.3-1.6c0.1,5,1.9,6.7,3.2,10.4c1.3,3.7,0.1,5-3.5,13.7
		c-3.6,8.7-9.5,24.9-11.9,27.4c-2.4,2.5-9.9,1.1-12.9,3.8C620,434.1,620.2,448.9,630.1,446.3z"/>
	<path class="st12" d="M542.2,446.5c0,0-10.7-4.1-11.3-10.7c-1.3-14.2,2.5-32.3,3.7-37.8c1.1-5.5-5.1-5.1-6.8-10.2
		c5.1,1.7,6.8,1.7,10.2,3.4c-0.9,2.1,1.5-3.9,3.8-3.7c1.2,0.1,3.1-4.6,4.7-6.4c0,0,1.6-1.7,0.8,4.2c-2,3.8-1.1,3.2-3.5,6.1
		c-2.5,2.9-1.8,4.2-1.6,12.3c0.2,8.1-0.1,23.1,1.2,25.7c1.3,2.6,8.6,2.8,10.4,5.7S550.2,450.7,542.2,446.5z"/>
	<path class="st18" d="M636.4,447.1c0,0-18.8,16.3-20.4,23.8c-1.1,5.1,3.4,23.8,2.2,62.1c-29.6,6.2-46.1,6.4-58.9,1.9
		c-6.1-35.1,4-46.5-2.7-63.9c-3.5-9.2-19.7-26.5-19.7-26.5s4.4-14.2,18.4-12.8c5.4,3.3,9,8.5,16,8.3c7-0.2,8.6-5.5,8.6-5.5
		s5.4,5.1,15.8,1.3c5.4,5.1,10.2,3.7,15.1-0.3c6.1-4.9,13.6-6.8,13.6-6.8S632.4,431.5,636.4,447.1z"/>
	<path class="st16" d="M587.2,456l1.2-7.6l1.1,7.6c1,6.7,5.9,12.1,12.5,13.7l0.9,0.2l-0.9,0.2c-6.6,1.6-11.5,6.9-12.6,13.6l-1.2,7.6
		l-1.1-7.6c-1-6.7-5.9-12.1-12.5-13.7l-0.9-0.2l0.9-0.2C581.2,468,586.1,462.7,587.2,456z"/>
</g>
</svg>
