<?xml version="1.0" encoding="utf-8"?>
<!-- Generator: $$$/GeneralStr/196=Adobe Illustrator 27.6.0, SVG Export Plug-In . SVG Version: 6.00 Build 0)  -->
<svg version="1.1" id="圖層_1" xmlns="http://www.w3.org/2000/svg" xmlns:xlink="http://www.w3.org/1999/xlink" x="0px" y="0px"
	 viewBox="0 0 390 100" style="enable-background:new 0 0 390 100;" xml:space="preserve">
<g>
	<path d="M106.2,26.6c0-6.9,4.8-13.1,11.5-13.1c-6.7,0-11.5-6.2-11.5-13.1c0,6.9-4.8,13.1-11.5,13.1
		C101.5,13.5,106.2,19.7,106.2,26.6z"/>
	<path d="M40.1,29.2h8.8c5,0,9.2,4.1,9.2,9.2v21.2c0,0.6,0.4,1,1,1s1-0.4,1-1V38.3c0-6.2-5-11.2-11.2-11.2h-8.8c-2.2,0-4-1.8-4-4
		v-6.6c0-0.6-0.4-1-1-1s-1,0.4-1,1v6.6C34,26.4,36.8,29.2,40.1,29.2z"/>
	<path d="M75,77.4h7c2.2,0,4-1.8,4-4v-39c0-3.9-3.1-7-7-7h-4c-2.2,0-4,1.8-4,4v42C71,75.6,72.8,77.4,75,77.4z M73,31.4
		c0-1.1,0.9-2,2-2h4c2.8,0,5,2.2,5,5v39c0,1.1-0.9,2-2,2h-7c-1.1,0-2-0.9-2-2V31.4z"/>
	<path d="M10.1,74.9c0,1.4,1.1,2.5,2.5,2.5h19c1.4,0,2.5-1.1,2.5-2.5V62.4c0-3.2-2.6-5.9-5.8-6l0,0c-0.1,0-0.2,0-0.3,0H12.6
		c-1.4,0-2.5,1.1-2.5,2.5V74.9z M32.1,62.4v12.5c0,0.3-0.2,0.5-0.5,0.5H18l10.7-16.9C30.6,58.7,32.1,60.4,32.1,62.4z M12.1,58.9
		c0-0.3,0.2-0.5,0.5-0.5h13.8l-10.7,17h-3.1c-0.3,0-0.5-0.2-0.5-0.5C12.1,74.9,12.1,58.9,12.1,58.9z"/>
	<path d="M25.6,50.4c1.4,0,2.5-1.1,2.5-2.5v-5.5c0-3.3-2.7-6-6-6h-9.5c-1.4,0-2.5,1.1-2.5,2.5v9c0,1.4,1.1,2.5,2.5,2.5H25.6z
		 M12.1,47.9v-9c0-0.3,0.2-0.5,0.5-0.5h9.5c2.2,0,4,1.8,4,4v5.5c0,0.3-0.2,0.5-0.5,0.5h-13C12.3,48.4,12.1,48.1,12.1,47.9z"/>
	<path d="M128.7,84.2c-0.1,0-11.2-0.8-15.7-6.9h7.1c2.2,0,4-2.1,4-4.7V52.8c0-5.8-3-10.7-7.2-12.6c0.1-5.3,3.8-9.9,8.9-9.9
		c-5.2,0-8.9-4.8-8.9-10.2c0,5.4-3.7,10.2-8.9,10.2c5.1,0,8.8,4.7,8.9,9.9c-1.2-0.5-2.5-0.8-3.8-0.8H96c0.5-4.9,4-9.1,8.8-9.1
		c-5.2,0-8.9-4.8-8.9-10.2c0,5.4-3.7,10.2-8.9,10.2c4.9,0,8.4,4.2,8.8,9.1H94c-2.2,0-4,2.1-4,4.7v28.6c0,2.6,1.8,4.7,4,4.7h4
		c0.6,0,1-0.4,1-1s-0.4-1-1-1h-4c-1.1,0-2-1.2-2-2.7V44.1c0-1.5,0.9-2.7,2-2.7h14.9L98.2,60.9c-0.2,0.3-0.2,0.7,0,1s0.5,0.5,0.9,0.5
		h13.3c-2.6,4.1-9.5,14.9-11.5,17.2c-3.8,4.2-11.2,4.7-14.3,4.7H72c-0.6,0-1,0.4-1,1s0.4,1,1,1h14.6c3.3,0,11.4-0.5,15.7-5.4
		c2.5-2.9,12.2-18.3,12.6-19c0.2-0.3,0.2-0.7,0-1c-0.2-0.3-0.5-0.5-0.9-0.5h-13.4l10.5-19h1.8c5,0,9,5.1,9,11.5v19.8
		c0,1.5-0.9,2.7-2,2.7h-8.7h-0.1c-0.2,0-0.4,0-0.6,0.1c-0.5,0.2-0.7,0.8-0.4,1.3c4.2,8.4,17.7,9.4,18.3,9.4c0,0,0,0,0.1,0
		c0.5,0,1-0.4,1-0.9C129.6,84.7,129.2,84.2,128.7,84.2z"/>
	<path d="M63.1,84.2c-10,0-15-8.1-15-24c0-0.1,0-0.2-0.1-0.3V44.4c0-0.6-0.4-1-1-1s-1,0.4-1,1v16c0,15.9-5,24-15,24h-0.1h-0.1H4.6
		c-1.1,0-2-0.9-2-2v-51c0-1.1,0.9-2,2-2H26c3.9,0,7,3.1,7,7c0,0.6,0.4,1,1,1s1-0.4,1-1c0-5-4-9-9-9H4.6c-2.2,0-4,1.8-4,4v51
		c0,2.2,1.8,4,4,4h26.2h0.1H31c8.6,0,14-5.1,16-15.3c2.1,10,7.4,15.1,16,15.1c0.6,0,1-0.4,1-1S63.7,84.2,63.1,84.2z"/>
	<path d="M183.5,39.5c-7.9,0-14.4,7.3-14.4,16.2s6.4,16.2,14.4,16.2s14.4-7.3,14.4-16.2S191.4,39.5,183.5,39.5z M183.5,68.9
		c-6.3,0-11.4-5.9-11.4-13.2s5.1-13.2,11.4-13.2s11.4,5.9,11.4,13.2S189.8,68.9,183.5,68.9z"/>
	<path d="M214.5,39.4l-4.1,0.1c-3.6,0-6.5,3-6.5,6.6v24.8c0,0.8,0.7,1.5,1.5,1.5s1.5-0.7,1.5-1.5V46c0-2,1.6-3.6,3.6-3.6l4.1-0.1
		c4.2,0,7.7,2.9,7.7,6.4s-3.4,6.4-7.7,6.4c-0.8,0-1.5,0.7-1.5,1.5s0.7,1.5,1.5,1.5c5.9,0,10.7-4.2,10.7-9.4S220.4,39.4,214.5,39.4z"
		/>
	<path d="M282.6,39.7c-0.8,0-1.5,0.7-1.5,1.5v25.9c0,1.4-1,2-1.8,2.2c-0.9,0.1-2-0.2-2.4-1.5l-7.8-24.5c-0.8-2.5-3.1-4-5.7-3.6
		s-4.4,2.5-4.4,5.1v25.8c0,0.8,0.7,1.5,1.5,1.5s1.5-0.7,1.5-1.5V44.9c0-1.4,1-2,1.9-2.2c0.9-0.1,2,0.2,2.4,1.5l7.8,24.5
		c0.7,2.2,2.6,3.6,4.9,3.6c0.3,0,0.6,0,0.8-0.1c2.6-0.4,4.4-2.5,4.4-5.1V41.2C284.1,40.4,283.5,39.7,282.6,39.7z"/>
	<path d="M387.6,39.7c-0.8,0-1.5,0.7-1.5,1.5v25.9c0,1.4-1,2-1.8,2.2c-0.9,0.1-2-0.2-2.4-1.5l-7.8-24.5c-0.8-2.5-3.1-4-5.7-3.6
		s-4.4,2.5-4.4,5.1v25.8c0,0.8,0.7,1.5,1.5,1.5s1.5-0.7,1.5-1.5V44.9c0-1.4,1-2,1.9-2.2c0.9-0.1,2,0.2,2.4,1.5l7.8,24.5
		c0.7,2.2,2.6,3.6,4.9,3.6c0.3,0,0.6,0,0.8-0.1c2.6-0.4,4.4-2.5,4.4-5.1V41.2C389.1,40.4,388.5,39.7,387.6,39.7z"/>
	<path d="M327.4,39.5h-12.9c-3.6,0-6.6,3-6.6,6.6v24.8c0,0.8,0.7,1.5,1.5,1.5s1.5-0.7,1.5-1.5V46.1c0-2,1.6-3.6,3.6-3.6h12.9
		c0.8,0,1.5-0.7,1.5-1.5S328.2,39.5,327.4,39.5z"/>
	<path d="M253.3,68.9h-16.2c-2,0-3.6-1.6-3.6-3.6V46.1c0-2,1.6-3.6,3.6-3.6H251c0.8,0,1.5-0.7,1.5-1.5s-0.7-1.5-1.5-1.5h-13.9
		c-3.6,0-6.6,3-6.6,6.6v19.2c0,3.6,3,6.6,6.6,6.6h16.2c0.8,0,1.5-0.7,1.5-1.5S254.1,68.9,253.3,68.9z"/>
	<path d="M356.7,39.5c-0.8,0-1.5,0.7-1.5,1.5v21.2c0,4-4,7.2-9,7.2s-9-3.2-9-7.2V41c0-0.8-0.7-1.5-1.5-1.5s-1.5,0.7-1.5,1.5v21.2
		c0,5.6,5.4,10.2,12,10.2s12-4.6,12-10.2V41C358.2,40.2,357.5,39.5,356.7,39.5z"/>
	<path d="M244,47.8c0,4.5-3.1,8.5-7.4,8.5c4.3,0,7.4,4,7.4,8.5c0-4.5,3.1-8.5,7.4-8.5C247.1,56.3,244,52.3,244,47.8z"/>
	<path d="M321.1,47.8c0,4.5-3.1,8.5-7.4,8.5c4.3,0,7.4,4,7.4,8.5c0-4.5,3.1-8.5,7.4-8.5C324.2,56.3,321.1,52.3,321.1,47.8z"/>
</g>
</svg>
