<?xml version="1.0" encoding="utf-8"?>
<!-- Generator: $$$/GeneralStr/196=Adobe Illustrator 27.6.0, SVG Export Plug-In . SVG Version: 6.00 Build 0)  -->
<svg version="1.1" id="圖層_1" xmlns="http://www.w3.org/2000/svg" xmlns:xlink="http://www.w3.org/1999/xlink" x="0px" y="0px"
	 viewBox="0 0 129 110" style="enable-background:new 0 0 129 110;" xml:space="preserve">
<style type="text/css">
	.st0{fill:#FFFFFF;}
</style>
<g>
	<path class="st0" d="M23.9,101.8c-2,0-3.7,1.9-3.7,4.1c0,2.3,1.6,4.1,3.7,4.1c2,0,3.7-1.9,3.7-4.1
		C27.6,103.6,25.9,101.8,23.9,101.8z M23.9,109.3c-1.6,0-2.9-1.5-2.9-3.4c0-1.9,1.3-3.4,2.9-3.4c1.6,0,2.9,1.5,2.9,3.4
		C26.8,107.8,25.5,109.3,23.9,109.3z"/>
	<path class="st0" d="M36.9,101.7l-1.1,0c-0.9,0-1.7,0.8-1.7,1.7v6.3c0,0.2,0.2,0.4,0.4,0.4c0.2,0,0.4-0.2,0.4-0.4v-6.3
		c0-0.5,0.4-0.9,0.9-0.9l1,0c1.1,0,2,0.7,2,1.6c0,0.9-0.9,1.6-2,1.6c-0.2,0-0.4,0.2-0.4,0.4s0.2,0.4,0.4,0.4c1.5,0,2.7-1.1,2.7-2.4
		C39.6,102.8,38.4,101.7,36.9,101.7z"/>
	<path class="st0" d="M64,101.8c-0.2,0-0.4,0.2-0.4,0.4v6.6c0,0.4-0.2,0.5-0.5,0.5c-0.2,0-0.5,0-0.6-0.4l-2-6.2
		c-0.2-0.6-0.8-1-1.5-0.9c-0.7,0.1-1.1,0.6-1.1,1.3v6.6c0,0.2,0.2,0.4,0.4,0.4s0.4-0.2,0.4-0.4v-6.6c0-0.4,0.2-0.5,0.5-0.6
		c0.2,0,0.5,0,0.6,0.4l2,6.2c0.2,0.6,0.7,0.9,1.2,0.9c0.1,0,0.1,0,0.2,0c0.7-0.1,1.1-0.6,1.1-1.3v-6.6C64.4,102,64.2,101.8,64,101.8
		z"/>
	<path class="st0" d="M108.6,101.8c-0.2,0-0.4,0.2-0.4,0.4v6.6c0,0.4-0.2,0.5-0.5,0.5c-0.2,0-0.5,0-0.6-0.4l-2-6.2
		c-0.2-0.6-0.8-1-1.5-0.9c-0.7,0.1-1.1,0.6-1.1,1.3v6.6c0,0.2,0.2,0.4,0.4,0.4c0.2,0,0.4-0.2,0.4-0.4v-6.6c0-0.4,0.2-0.5,0.5-0.6
		c0.2,0,0.5,0,0.6,0.4l2,6.2c0.2,0.6,0.7,0.9,1.2,0.9c0.1,0,0.1,0,0.2,0c0.7-0.1,1.1-0.6,1.1-1.3v-6.6
		C109,102,108.8,101.8,108.6,101.8z"/>
	<path class="st0" d="M83.3,101.8H80c-0.9,0-1.7,0.8-1.7,1.7v6.3c0,0.2,0.2,0.4,0.4,0.4s0.4-0.2,0.4-0.4v-6.3c0-0.5,0.4-0.9,0.9-0.9
		h3.3c0.2,0,0.4-0.2,0.4-0.4C83.7,101.9,83.5,101.8,83.3,101.8z"/>
	<path class="st0" d="M51.6,109.3h-4.1c-0.5,0-0.9-0.4-0.9-0.9v-4.9c0-0.5,0.4-0.9,0.9-0.9h3.6c0.2,0,0.4-0.2,0.4-0.4
		c0-0.2-0.2-0.4-0.4-0.4h-3.6c-0.9,0-1.7,0.8-1.7,1.7v4.9c0,0.9,0.8,1.7,1.7,1.7h4.1c0.2,0,0.4-0.2,0.4-0.4
		C52,109.4,51.9,109.3,51.6,109.3z"/>
	<path class="st0" d="M95.4,101.8c-0.2,0-0.4,0.2-0.4,0.4v5.4c0,1-1,1.8-2.3,1.8c-1.3,0-2.3-0.8-2.3-1.8v-5.4c0-0.2-0.2-0.4-0.4-0.4
		c-0.2,0-0.4,0.2-0.4,0.4v5.4c0,1.4,1.4,2.6,3,2.6c1.7,0,3-1.2,3-2.6v-5.4C95.8,101.9,95.6,101.8,95.4,101.8z"/>
	<path class="st0" d="M49.3,103.9c0,1.1-0.8,2.2-1.9,2.2c1.1,0,1.9,1,1.9,2.2c0-1.1,0.8-2.2,1.9-2.2C50.1,106,49.3,105,49.3,103.9z"
		/>
	<path class="st0" d="M81.7,103.9c0,1.1-0.8,2.2-1.9,2.2c1.1,0,1.9,1,1.9,2.2c0-1.1,0.8-2.2,1.9-2.2C82.5,106.1,81.7,105,81.7,103.9
		z"/>
	<path class="st0" d="M105.7,26.3c0-6.9,4.8-13.1,11.5-13.1c-6.7,0-11.5-6.2-11.5-13.1c0,6.9-4.8,13.1-11.5,13.1
		C101,13.2,105.7,19.4,105.7,26.3z"/>
	<path class="st0" d="M39.6,28.9h8.8c5,0,9.2,4.1,9.2,9.2v21.2c0,0.6,0.4,1,1,1s1-0.4,1-1V38c0-6.2-5-11.2-11.2-11.2h-8.8
		c-2.2,0-4-1.8-4-4v-6.6c0-0.6-0.4-1-1-1s-1,0.4-1,1v6.6C33.5,26.2,36.3,28.9,39.6,28.9z"/>
	<path class="st0" d="M74.5,77.1h7c2.2,0,4-1.8,4-4v-39c0-3.9-3.1-7-7-7h-4c-2.2,0-4,1.8-4,4v42C70.5,75.3,72.3,77.1,74.5,77.1z
		 M72.5,31.1c0-1.1,0.9-2,2-2h4c2.8,0,5,2.2,5,5v39c0,1.1-0.9,2-2,2h-7c-1.1,0-2-0.9-2-2V31.1z"/>
	<path class="st0" d="M9.6,74.6c0,1.4,1.1,2.5,2.5,2.5h19c1.4,0,2.5-1.1,2.5-2.5V62.1c0-3.2-2.6-5.9-5.8-6c0,0,0,0,0,0
		c-0.1,0-0.2,0-0.3,0H12.1c-1.4,0-2.5,1.1-2.5,2.5V74.6z M31.6,62.1v12.5c0,0.3-0.2,0.5-0.5,0.5H17.5l10.7-16.9
		C30.1,58.4,31.6,60.1,31.6,62.1z M11.6,58.6c0-0.3,0.2-0.5,0.5-0.5h13.8l-10.7,17h-3.1c-0.3,0-0.5-0.2-0.5-0.5V58.6z"/>
	<path class="st0" d="M25.1,50.1c1.4,0,2.5-1.1,2.5-2.5v-5.5c0-3.3-2.7-6-6-6h-9.5c-1.4,0-2.5,1.1-2.5,2.5v9c0,1.4,1.1,2.5,2.5,2.5
		H25.1z M11.6,47.6v-9c0-0.3,0.2-0.5,0.5-0.5h9.5c2.2,0,4,1.8,4,4v5.5c0,0.3-0.2,0.5-0.5,0.5h-13C11.8,48.1,11.6,47.9,11.6,47.6z"/>
	<path class="st0" d="M128.2,83.9c-0.1,0-11.2-0.8-15.7-6.9h7.1c2.2,0,4-2.1,4-4.7V52.5c0-5.8-3-10.7-7.2-12.6
		c0.1-5.3,3.8-9.9,8.9-9.9c-5.2,0-8.9-4.8-8.9-10.2c0,5.4-3.7,10.2-8.9,10.2c5.1,0,8.8,4.7,8.9,9.9c-1.2-0.5-2.5-0.8-3.8-0.8H95.4
		c0.5-4.9,4-9.1,8.8-9.1c-5.2,0-8.9-4.8-8.9-10.2c0,5.4-3.7,10.2-8.9,10.2c4.9,0,8.4,4.2,8.8,9.1h-1.7c-2.2,0-4,2.1-4,4.7v28.6
		c0,2.6,1.8,4.7,4,4.7h4c0.6,0,1-0.4,1-1s-0.4-1-1-1h-4c-1.1,0-2-1.2-2-2.7V43.8c0-1.5,0.9-2.7,2-2.7h14.9L97.7,60.6
		c-0.2,0.3-0.2,0.7,0,1c0.2,0.3,0.5,0.5,0.9,0.5h13.3c-2.6,4.1-9.5,14.9-11.5,17.2c-3.8,4.2-11.2,4.7-14.3,4.7H71.5
		c-0.6,0-1,0.4-1,1s0.4,1,1,1h14.6c3.3,0,11.4-0.5,15.7-5.4c2.5-2.9,12.2-18.3,12.6-19c0.2-0.3,0.2-0.7,0-1
		c-0.2-0.3-0.5-0.5-0.9-0.5h-13.4l10.5-19h1.8c5,0,9,5.1,9,11.5v19.8c0,1.5-0.9,2.7-2,2.7h-8.7c0,0-0.1,0-0.1,0
		c-0.2,0-0.4,0-0.6,0.1c-0.5,0.2-0.7,0.8-0.4,1.3c4.2,8.4,17.7,9.4,18.3,9.4c0,0,0,0,0.1,0c0.5,0,1-0.4,1-0.9
		C129.1,84.4,128.7,84,128.2,83.9z"/>
	<path class="st0" d="M63.6,84.9c0-0.6-0.4-1-1-1c-10,0-15-8.1-15-24c0-0.1,0-0.2-0.1-0.3V44.1c0-0.6-0.4-1-1-1s-1,0.4-1,1v16
		c0,15.9-5,24-15,24c0,0-0.1,0-0.1,0c0,0-0.1,0-0.1,0H4.1c-1.1,0-2-0.9-2-2v-51c0-1.1,0.9-2,2-2h21.4c3.9,0,7,3.1,7,7
		c0,0.6,0.4,1,1,1s1-0.4,1-1c0-5-4-9-9-9H4.1c-2.2,0-4,1.8-4,4v51c0,2.2,1.8,4,4,4h26.2c0,0,0.1,0,0.1,0c0,0,0.1,0,0.1,0
		c8.6,0,14-5.1,16-15.3c2.1,10,7.4,15.1,16,15.1C63.2,85.9,63.6,85.5,63.6,84.9z"/>
</g>
</svg>
