<?xml version="1.0" encoding="utf-8"?>
<!-- Generator: $$$/GeneralStr/196=Adobe Illustrator 27.6.0, SVG Export Plug-In . SVG Version: 6.00 Build 0)  -->
<svg version="1.1" id="圖層_1" xmlns="http://www.w3.org/2000/svg" xmlns:xlink="http://www.w3.org/1999/xlink" x="0px" y="0px"
	 viewBox="0 0 390 100" style="enable-background:new 0 0 390 100;" xml:space="preserve">
<style type="text/css">
	.st0{fill:#FFFFFF;}
</style>
<g>
	<path class="st0" d="M106.6,26.6c0-6.9,4.8-13.1,11.5-13.1c-6.7,0-11.5-6.2-11.5-13.1c0,6.9-4.8,13.1-11.5,13.1
		C101.8,13.5,106.6,19.7,106.6,26.6z"/>
	<path class="st0" d="M40.4,29.1h8.8c5.1,0,9.2,4.1,9.2,9.2v21.3c0,0.6,0.4,1,1,1s1-0.4,1-1V38.3c0-6.2-5-11.2-11.2-11.2h-8.8
		c-2.2,0-4-1.8-4-4v-6.6c0-0.6-0.4-1-1-1s-1,0.4-1,1v6.6C34.4,26.4,37.1,29.1,40.4,29.1z"/>
	<path class="st0" d="M75.4,77.4h7c2.2,0,4-1.8,4-4v-39c0-3.9-3.1-7-7-7h-4c-2.2,0-4,1.8-4,4v42C71.4,75.6,73.2,77.4,75.4,77.4z
		 M73.4,31.4c0-1.1,0.9-2,2-2h4c2.8,0,5,2.2,5,5v39c0,1.1-0.9,2-2,2h-7c-1.1,0-2-0.9-2-2V31.4z"/>
	<path class="st0" d="M10.5,74.9c0,1.4,1.1,2.5,2.5,2.5h19c1.4,0,2.5-1.1,2.5-2.5V62.4c0-3.3-2.7-6-6-6H13c-1.4,0-2.5,1.1-2.5,2.5
		V74.9z M32.5,62.4v12.5c0,0.2-0.1,0.5-0.5,0.5H18.4l10.7-16.9C31,58.8,32.5,60.4,32.5,62.4z M12.5,58.9c0-0.2,0.3-0.5,0.5-0.5h13.8
		l-10.7,17h-3c-0.2,0-0.5-0.3-0.5-0.5L12.5,58.9L12.5,58.9z"/>
	<path class="st0" d="M13,50.4h13c1.4,0,2.5-1.1,2.5-2.5v-5.5c0-3.4-2.6-6-6-6H13c-1.4,0-2.5,1.1-2.5,2.5v9
		C10.5,49.3,11.6,50.4,13,50.4z M12.5,38.9c0-0.2,0.3-0.5,0.5-0.5h9.5c2.2,0,4,1.8,4,4v5.5c0,0.2-0.1,0.5-0.5,0.5H13
		c-0.2,0-0.5-0.3-0.5-0.5V38.9z"/>
	<path class="st0" d="M129.1,84.2c-0.1,0-11.1-0.8-15.7-6.8h7c2.3,0,4-2,4-4.7V52.9c0-5.8-3-10.7-7.2-12.6c0.1-5.3,3.8-10,8.9-10
		c-5.2,0-8.9-4.8-8.9-10.2c0,5.4-3.7,10.2-8.9,10.2c5.1,0,8.8,4.6,8.9,9.9c-1.2-0.5-2.5-0.8-3.8-0.8H96.3c0.5-4.9,4-9.1,8.8-9.1
		c-5.2,0-8.9-4.8-8.9-10.2c0,5.4-3.7,10.2-8.9,10.2c4.8,0,8.4,4.2,8.8,9.1h-1.7c-2.3,0-4,2-4,4.7v28.6c0,2.6,1.8,4.7,4,4.7h4
		c0.6,0,1-0.4,1-1s-0.4-1-1-1h-4c-1.1,0-2-1.2-2-2.7V44.1c0-1.5,0.9-2.7,2-2.7h14.9L98.5,60.9c-0.2,0.3-0.2,0.7,0,1s0.5,0.5,0.9,0.5
		h13.3c-2.6,4.1-9.5,14.9-11.4,17.1c-3.9,4.3-11.9,4.7-14.3,4.7H72.4c-0.6,0-1,0.4-1,1s0.4,1,1,1H87c3.3,0,11.4-0.5,15.7-5.3
		c2.5-2.8,12.2-18.3,12.6-18.9c0.2-0.3,0.2-0.7,0-1c-0.2-0.3-0.5-0.5-0.9-0.5H101l10.5-19h1.8c5,0,9,5.2,9,11.5v19.8
		c0,1.5-0.9,2.7-2,2.7h-8.5c-0.3-0.1-0.6-0.1-0.8,0c-0.5,0.2-0.7,0.8-0.4,1.3c4.2,8.4,17.8,9.4,18.3,9.5c0,0,0,0,0.1,0
		c0.5,0,1-0.4,1-0.9C130,84.7,129.6,84.2,129.1,84.2z"/>
	<path class="st0" d="M63.5,84.2c-10,0-15-8.1-15-24c0-0.2,0-0.3-0.1-0.4V44.4c0-0.6-0.4-1-1-1s-1,0.4-1,1v16c0,15.9-5,24-15,24
		h-0.1h-0.1H5c-1.1,0-2-0.9-2-2v-51c0-1.1,0.9-2,2-2h21.4c3.9,0,7,3.1,7,7c0,0.6,0.4,1,1,1s1-0.4,1-1c0-5-4-9-9-9H5
		c-2.2,0-4,1.8-4,4v51c0,2.2,1.8,4,4,4h26.2h0.1h0.1c8.7,0,14-5.2,16.1-15.4c2.1,10.1,7.4,15.2,16,15.2c0.6,0,1-0.4,1-1
		S64.1,84.2,63.5,84.2z"/>
	<path class="st0" d="M182.9,39.5c-7.9,0-14.4,7.3-14.4,16.2s6.5,16.2,14.4,16.2s14.4-7.3,14.4-16.2S190.8,39.5,182.9,39.5z
		 M182.9,68.9c-6.3,0-11.4-5.9-11.4-13.2s5.1-13.2,11.4-13.2s11.4,5.9,11.4,13.2S189.2,68.9,182.9,68.9z"/>
	<path class="st0" d="M213.9,39.3l-4.1,0.1c-3.6,0-6.6,3-6.6,6.6v24.9c0,0.8,0.7,1.5,1.5,1.5s1.5-0.7,1.5-1.5V46
		c0-2,1.6-3.6,3.6-3.6l4.1-0.1c4.2,0,7.7,2.9,7.7,6.4s-3.5,6.4-7.7,6.4c-0.8,0-1.5,0.7-1.5,1.5s0.7,1.5,1.5,1.5
		c5.9,0,10.7-4.2,10.7-9.4S219.8,39.3,213.9,39.3z"/>
	<path class="st0" d="M282.1,39.7c-0.8,0-1.5,0.7-1.5,1.5v26c0,1.4-0.9,2-1.8,2.1s-2-0.2-2.4-1.5l-7.8-24.5c-0.8-2.5-3.2-4-5.8-3.5
		c-2.6,0.4-4.4,2.5-4.4,5.1v25.8c0,0.8,0.7,1.5,1.5,1.5s1.5-0.7,1.5-1.5V44.9c0-1.4,0.9-2,1.8-2.1s2,0.2,2.4,1.5l7.8,24.5
		c0.7,2.2,2.7,3.6,4.9,3.6c0.3,0,0.6,0,0.9-0.1c2.6-0.4,4.4-2.5,4.4-5.1v-26C283.6,40.4,282.9,39.7,282.1,39.7z"/>
	<path class="st0" d="M387.1,39.7c-0.8,0-1.5,0.7-1.5,1.5v26c0,1.4-0.9,2-1.8,2.1s-2-0.2-2.4-1.5l-7.8-24.5c-0.8-2.5-3.2-4-5.8-3.5
		c-2.6,0.4-4.4,2.5-4.4,5.1v25.8c0,0.8,0.7,1.5,1.5,1.5s1.5-0.7,1.5-1.5V44.9c0-1.4,0.9-2,1.8-2.1s2,0.2,2.4,1.5l7.8,24.5
		c0.7,2.2,2.7,3.6,4.9,3.6c0.3,0,0.6,0,0.9-0.1c2.6-0.4,4.4-2.5,4.4-5.1v-26C388.6,40.4,387.9,39.7,387.1,39.7z"/>
	<path class="st0" d="M326.8,39.5h-12.9c-3.6,0-6.6,3-6.6,6.6v24.8c0,0.8,0.7,1.5,1.5,1.5s1.5-0.7,1.5-1.5V46.1c0-2,1.6-3.6,3.6-3.6
		h12.9c0.8,0,1.5-0.7,1.5-1.5S327.6,39.5,326.8,39.5z"/>
	<path class="st0" d="M252.7,68.9h-16.2c-2,0-3.6-1.6-3.6-3.6V46.1c0-2,1.6-3.6,3.6-3.6h13.9c0.8,0,1.5-0.7,1.5-1.5
		s-0.7-1.5-1.5-1.5h-13.9c-3.6,0-6.6,3-6.6,6.6v19.2c0,3.6,3,6.6,6.6,6.6h16.2c0.8,0,1.5-0.7,1.5-1.5S253.5,68.9,252.7,68.9z"/>
	<path class="st0" d="M356.2,39.5c-0.8,0-1.5,0.7-1.5,1.5v21.2c0,4-4,7.2-9,7.2s-9-3.2-9-7.2V41c0-0.8-0.7-1.5-1.5-1.5
		s-1.5,0.7-1.5,1.5v21.2c0,5.6,5.4,10.2,12,10.2s12-4.6,12-10.2V41C357.7,40.2,357,39.5,356.2,39.5z"/>
	<path class="st0" d="M243.4,47.8c0,4.5-3.1,8.5-7.4,8.5c4.3,0,7.4,4,7.4,8.5c0-4.5,3.1-8.5,7.4-8.5
		C246.5,56.3,243.4,52.3,243.4,47.8z"/>
	<path class="st0" d="M320.5,47.8c0,4.5-3.1,8.5-7.4,8.5c4.3,0,7.4,4,7.4,8.5c0-4.5,3.1-8.5,7.4-8.5
		C323.6,56.3,320.5,52.3,320.5,47.8z"/>
</g>
</svg>
