<?xml version="1.0" encoding="utf-8"?>
<!-- Generator: $$$/GeneralStr/196=Adobe Illustrator 27.6.0, SVG Export Plug-In . SVG Version: 6.00 Build 0)  -->
<svg version="1.1" id="圖層_1" xmlns="http://www.w3.org/2000/svg" xmlns:xlink="http://www.w3.org/1999/xlink" x="0px" y="0px"
	 viewBox="0 0 1203.5 768" style="enable-background:new 0 0 1203.5 768;" xml:space="preserve">
<style type="text/css">
	.st0{fill:#FAFAFA;}
	.st1{fill:#F9F9F9;}
	.st2{fill:#F2F2F2;}
	.st3{fill:#F4F4F4;}
</style>
<path class="st0" d="M613.1,153.8l5.7,1.4l-5.7,1.4c-40.3,9.9-70.7,43-77,84l-7.2,47l-7.2-47c-6.3-41-36.7-74.2-77-84l-5.7-1.4
	l5.7-1.4c40.3-9.9,70.7-43,77-84l7.2-47l7.2,47C542.4,110.7,572.8,143.9,613.1,153.8z"/>
<path class="st0" d="M1179,478.3l5.7,1.4l-5.7,1.4c-40.3,9.9-70.7,43-77,84l-7.2,47l-7.2-47c-6.3-41-36.7-74.2-77-84l-5.7-1.4
	l5.7-1.4c40.3-9.9,70.7-43,77-84l7.2-47l7.2,47C1108.3,435.3,1138.7,468.5,1179,478.3z"/>
<path class="st1" d="M806.9,611.2l4,1l-4,1c-28.5,7-50,30.4-54.4,59.4l-5.1,33.2l-5.1-33.2c-4.5-29-25.9-52.4-54.4-59.4l-4-1l4-1
	c28.5-7,50-30.4,54.4-59.4l5.1-33.2l5.1,33.2C756.9,580.8,778.4,604.2,806.9,611.2z"/>
<path class="st1" d="M294.3,366.3l4,1l-4,1c-28.5,7-50,30.4-54.4,59.4l-5.1,33.2l-5.1-33.2c-4.5-29-25.9-52.4-54.4-59.4l-4-1l4-1
	c28.5-7,50-30.4,54.4-59.4l5.1-33.2l5.1,33.2C244.3,335.9,265.8,359.4,294.3,366.3z"/>
<path class="st2" d="M1118.7,247.1l1.6,0.4l-1.6,0.4c-11.5,2.8-20.1,12.2-21.9,23.9l-2.1,13.4l-2.1-13.4
	c-1.8-11.7-10.4-21.1-21.9-23.9l-1.6-0.4l1.6-0.4c11.5-2.8,20.1-12.2,21.9-23.9l2.1-13.4l2.1,13.4
	C1098.6,234.9,1107.2,244.3,1118.7,247.1z"/>
<path class="st2" d="M488.4,705.3l1.6,0.4l-1.6,0.4c-11.5,2.8-20.1,12.2-21.9,23.9l-2.1,13.4l-2.1-13.4
	c-1.8-11.7-10.4-21.1-21.9-23.9l-1.6-0.4l1.6-0.4c11.5-2.8,20.1-12.2,21.9-23.9l2.1-13.4l2.1,13.4
	C468.3,693.1,476.9,702.5,488.4,705.3z"/>
<path class="st2" d="M103.1,60l1.6,0.4l-1.6,0.4C91.6,63.6,83,73,81.2,84.7L79.1,98L77,84.6c-1.7-11.6-10.4-21-21.8-23.8l-1.6-0.4
	l1.6-0.4c11.5-2.8,20.1-12.2,21.9-23.9l2.1-13.4l2.1,13.4C83,47.8,91.6,57.2,103.1,60z"/>
<path class="st2" d="M679.8,441.7l1.6,0.4l-1.6,0.4c-11.5,2.8-20.1,12.2-21.9,23.9l-2.1,13.4l-2.1-13.4
	c-1.8-11.7-10.4-21.1-21.9-23.9l-1.6-0.4l1.6-0.4c11.5-2.8,20.1-12.2,21.9-23.9l2.1-13.4l2.1,13.4
	C659.7,429.5,668.3,438.9,679.8,441.7z"/>
<path class="st3" d="M858.5,78.3l1.6,0.4l-1.6,0.4c-11.5,2.8-20.1,12.2-21.9,23.9l-2.1,13.4l-2.1-13.4
	c-1.8-11.7-10.4-21.1-21.9-23.9l-1.6-0.4l1.6-0.4c11.5-2.8,20.1-12.2,21.9-23.9l2.1-13.4l2.1,13.4C838.4,66,847,75.5,858.5,78.3z"/>
<path class="st3" d="M334.7,535l1.6,0.4l-1.6,0.4c-11.5,2.8-20.1,12.2-21.9,23.9l-2.1,13.4l-2.1-13.4c-1.8-11.7-10.4-21.1-21.9-23.9
	l-1.6-0.4l1.6-0.4c11.5-2.8,20.1-12.2,21.9-23.9l2.1-13.4l2.1,13.4C314.6,522.8,323.2,532.2,334.7,535z"/>
</svg>
