<?xml version="1.0" encoding="utf-8"?>
<!-- Generator: $$$/GeneralStr/196=Adobe Illustrator 27.6.0, SVG Export Plug-In . SVG Version: 6.00 Build 0)  -->
<svg version="1.1" id="圖層_1" xmlns="http://www.w3.org/2000/svg" xmlns:xlink="http://www.w3.org/1999/xlink" x="0px" y="0px"
	 viewBox="0 0 1203.5 768" style="enable-background:new 0 0 1203.5 768;" xml:space="preserve">
<style type="text/css">
	.st0{opacity:0.6;}
	.st1{opacity:3.000000e-02;fill:#FFFFFF;}
	.st2{opacity:6.000000e-02;fill:#FFFFFF;}
	.st3{opacity:0.1;fill:#FFFFFF;}
	.st4{opacity:2.000000e-02;fill:#FFFFFF;}
	.st5{opacity:4.000000e-02;fill:#FFFFFF;}
</style>
<g class="st0">
	<path class="st1" d="M113.9,470.5l2.1,0.5l-2.1,0.5c-14.6,3.6-25.7,15.6-28,30.5l-2.6,17.1L80.7,502c-2.3-14.9-13.3-26.9-28-30.5
		l-2.1-0.5l2.1-0.5c14.6-3.6,25.7-15.6,28-30.5l2.6-17.1l2.6,17.1C88.2,454.8,99.2,466.9,113.9,470.5z"/>
	<path class="st2" d="M104.9,277.7l1.5,0.4l-1.5,0.4c-10.4,2.5-18.2,11-19.8,21.6l-1.9,12.1L81.4,300c-1.6-10.5-9.4-19-19.8-21.6
		l-1.5-0.4l1.5-0.4c10.4-2.5,18.2-11,19.8-21.6l1.9-12.1l1.9,12.1C86.7,266.7,94.5,275.2,104.9,277.7z"/>
	<path class="st3" d="M101.7,147.6l1.2,0.3l-1.2,0.3c-8.9,2.2-15.5,9.4-16.9,18.4l-1.6,10.2l-1.6-10.3c-1.3-8.9-8-16.2-16.8-18.3
		l-1.2-0.3l1.2-0.3c8.9-2.2,15.5-9.4,16.9-18.4l1.6-10.3l1.6,10.3C86.2,138.2,92.9,145.5,101.7,147.6z"/>
	<path class="st3" d="M101.8,633.6l1.2,0.3l-1.2,0.3c-8.9,2.2-15.5,9.4-16.9,18.4L83.3,663l-1.6-10.3c-1.4-9-8-16.3-16.9-18.4
		l-1.2-0.3l1.2-0.3c8.9-2.2,15.5-9.4,16.9-18.4l1.6-10.3l1.6,10.3C86.3,624.2,92.9,631.5,101.8,633.6z"/>
</g>
<g class="st0">
	<path class="st1" d="M457.3,188.2l2.1,0.5l-2.1,0.5c-14.6,3.6-25.7,15.6-28,30.5l-2.6,17.1l-2.6-17.1c-2.3-14.9-13.3-26.9-28-30.5
		l-2.1-0.5l2.1-0.5c14.6-3.6,25.7-15.6,28-30.5l2.6-17.1l2.6,17.1C431.6,172.6,442.6,184.6,457.3,188.2z"/>
	<path class="st2" d="M442,537.5l1,0.3l-1,0.3c-7.3,1.8-12.9,7.8-14,15.3l-1.3,8.6l-1.3-8.6c-1.1-7.5-6.7-13.5-14-15.3l-1-0.3l1-0.3
		c7.3-1.8,12.9-7.8,14-15.3l1.3-8.6l1.3,8.6C429.2,529.6,434.7,535.7,442,537.5z"/>
	<path class="st2" d="M445.2,345.4l1.2,0.3l-1.2,0.3c-8.9,2.2-15.5,9.4-16.9,18.4l-1.6,10.3l-1.6-10.3c-1.4-9-8-16.3-16.9-18.4
		l-1.2-0.3l1.2-0.3c8.9-2.2,15.5-9.4,16.9-18.4l1.6-10.3l1.6,10.3C429.7,336,436.3,343.3,445.2,345.4z"/>
	<path class="st1" d="M445.2,636.8l1.2,0.3l-1.2,0.3c-8.9,2.2-15.5,9.4-16.9,18.4l-1.6,10.3l-1.6-10.3c-1.4-9-8-16.3-16.9-18.4
		l-1.2-0.3l1.2-0.3c8.9-2.2,15.5-9.4,16.9-18.4l1.6-10.3l1.6,10.3C429.7,627.3,436.3,634.6,445.2,636.8z"/>
</g>
<g class="st0">
	<path class="st1" d="M629,448.5l2.1,0.5l-2.1,0.5c-14.6,3.6-25.7,15.6-28,30.5l-2.6,17.1l-2.6-17.1c-2.3-14.9-13.3-26.9-28-30.5
		l-2.1-0.5l2.1-0.5c14.6-3.6,25.7-15.6,28-30.5l2.6-17.1L601,418C603.3,432.8,614.4,444.9,629,448.5z"/>
	<path class="st1" d="M616.9,51.4l1.2,0.3l-1.2,0.3c-8.9,2.2-15.5,9.4-16.9,18.4l-1.6,10.3l-1.6-10.3c-1.4-9-8-16.3-16.9-18.4
		l-1.2-0.3l1.2-0.3c8.9-2.2,15.5-9.4,16.9-18.4l1.6-10.3L600,33C601.4,42,608,49.2,616.9,51.4z"/>
	<path class="st3" d="M616.9,236.5l1.2,0.3l-1.2,0.3c-8.9,2.2-15.5,9.4-16.9,18.4l-1.6,10.3l-1.6-10.3c-1.4-9-8-16.3-16.9-18.4
		l-1.2-0.3l1.2-0.3c8.9-2.2,15.5-9.4,16.9-18.4l1.6-10.3L600,218C601.4,227,608,234.3,616.9,236.5z"/>
	<path class="st3" d="M610.1,674l0.8,0.2l-0.8,0.2c-5.6,1.4-9.8,5.9-10.7,11.6l-1,6.5l-1-6.5c-0.9-5.7-5.1-10.3-10.7-11.6l-0.8-0.2
		l0.8-0.2c5.6-1.4,9.8-5.9,10.7-11.6l1-6.5l1,6.5C600.3,668,604.5,672.6,610.1,674z"/>
</g>
<g class="st0">
	<path class="st4" d="M285.6,70.3l2.1,0.5l-2.1,0.5c-14.6,3.6-25.7,15.6-28,30.5l-2.6,17.1l-2.6-17.1c-2.3-14.9-13.3-26.9-28-30.5
		l-2.1-0.5l2.1-0.5c14.6-3.6,25.7-15.6,28-30.5l2.6-17.1l2.6,17.1C259.9,54.7,270.9,66.7,285.6,70.3z"/>
	<path class="st2" d="M276.6,462.7l1.5,0.4l-1.5,0.4c-10.4,2.5-18.2,11-19.8,21.6l-1.9,12.1l-1.9-12.1c-1.6-10.5-9.4-19-19.8-21.6
		l-1.5-0.4l1.5-0.4c10.4-2.5,18.2-11,19.8-21.6l1.9-12.1l1.9,12.1C258.4,451.7,266.3,460.2,276.6,462.7z"/>
	<path class="st1" d="M273.5,702.9l1.2,0.3l-1.2,0.3c-8.9,2.2-15.5,9.4-16.9,18.4l-1.6,10.3l-1.6-10.3c-1.4-9-8-16.3-16.9-18.4
		l-1.2-0.3l1.2-0.3c8.9-2.2,15.5-9.4,16.9-18.4l1.6-10.3l1.6,10.3C258,693.5,264.6,700.7,273.5,702.9z"/>
	<path class="st1" d="M273.5,270.5l1.2,0.3l-1.2,0.3c-8.9,2.2-15.5,9.4-16.9,18.4l-1.6,10.3l-1.6-10.3c-1.4-9-8-16.3-16.9-18.4
		l-1.2-0.3l1.2-0.3c8.9-2.2,15.5-9.4,16.9-18.4l1.6-10.3l1.6,10.3C258,261.1,264.6,268.3,273.5,270.5z"/>
</g>
<g class="st0">
	<path class="st5" d="M1083,293.5l-2.1-0.5l2.1-0.5c14.6-3.6,25.7-15.6,28-30.5l2.6-17.1l2.6,17.1c2.3,14.9,13.3,26.9,28,30.5
		l2.1,0.5l-2.1,0.5c-14.6,3.6-25.7,15.6-28,30.5l-2.6,17.1l-2.6-17.1C1108.6,309.2,1097.6,297.1,1083,293.5z"/>
	<path class="st1" d="M1091.9,486.3l-1.5-0.4l1.5-0.4c10.4-2.5,18.2-11,19.8-21.6l1.9-12.1l1.9,12.1c1.6,10.5,9.4,19,19.8,21.6
		l1.5,0.4l-1.5,0.4c-10.4,2.5-18.2,11-19.8,21.6l-1.9,12.1l-1.9-12.1C1110.1,497.3,1102.3,488.8,1091.9,486.3z"/>
	<path class="st3" d="M1095.1,616.4l-1.2-0.3l1.2-0.3c8.9-2.2,15.5-9.4,16.9-18.4l1.6-10.2l1.6,10.3c1.3,8.9,8,16.2,16.8,18.3
		l1.2,0.3l-1.2,0.3c-8.9,2.2-15.5,9.4-16.9,18.4l-1.6,10.3l-1.6-10.3C1110.6,625.8,1104,618.5,1095.1,616.4z"/>
	<path class="st2" d="M1095.1,130.4l-1.2-0.3l1.2-0.3c8.9-2.2,15.5-9.4,16.9-18.4l1.6-10.3l1.6,10.3c1.4,9,8,16.3,16.9,18.4l1.2,0.3
		l-1.2,0.3c-8.9,2.2-15.5,9.4-16.9,18.4l-1.6,10.3l-1.6-10.3C1110.5,139.8,1103.9,132.5,1095.1,130.4z"/>
</g>
<g class="st0">
	<path class="st1" d="M739.5,703.7l-2.1-0.5l2.1-0.5c14.6-3.6,25.7-15.6,28-30.5l2.6-17.1l2.6,17.1c2.3,14.9,13.3,26.9,28,30.5
		l2.1,0.5l-2.1,0.5c-14.6,3.6-25.7,15.6-28,30.5l-2.6,17.1l-2.6-17.1C765.2,719.3,754.2,707.3,739.5,703.7z"/>
	<path class="st1" d="M754.8,226.5l-1-0.3l1-0.3c7.3-1.8,12.9-7.8,14-15.3l1.3-8.6l1.3,8.6c1.1,7.5,6.7,13.5,14,15.3l1,0.3l-1,0.3
		c-7.3,1.8-12.9,7.8-14,15.3l-1.3,8.6l-1.3-8.6C767.7,234.4,762.1,228.3,754.8,226.5z"/>
	<path class="st2" d="M751.6,418.5l-1.2-0.3l1.2-0.3c8.9-2.2,15.5-9.4,16.9-18.4l1.6-10.3l1.6,10.3c1.4,9,8,16.3,16.9,18.4l1.2,0.3
		l-1.2,0.3c-8.9,2.2-15.5,9.4-16.9,18.4l-1.6,10.3l-1.6-10.3C767.1,427.9,760.5,420.7,751.6,418.5z"/>
	<path class="st2" d="M751.6,127.2l-1.2-0.3l1.2-0.3c8.9-2.2,15.5-9.4,16.9-18.4l1.6-10.3l1.6,10.3c1.4,9,8,16.3,16.9,18.4l1.2,0.3
		l-1.2,0.3c-8.9,2.2-15.5,9.4-16.9,18.4l-1.6,10.3l-1.6-10.3C767.1,136.7,760.5,129.4,751.6,127.2z"/>
</g>
<g class="st0">
	<path class="st1" d="M911.3,401.4l-2.1-0.5l2.1-0.5c14.6-3.6,25.7-15.6,28-30.5l2.6-17.1l2.6,17.1c2.3,14.9,13.3,26.9,28,30.5
		l2.1,0.5l-2.1,0.5c-14.6,3.6-25.7,15.6-28,30.5l-2.6,17.1l-2.6-17.1C936.9,417.1,925.9,405,911.3,401.4z"/>
	<path class="st2" d="M920.2,663.3l-1.5-0.4l1.5-0.4c10.4-2.5,18.2-11,19.8-21.6l1.9-12.1l1.9,12.1c1.6,10.5,9.4,19,19.8,21.6
		l1.5,0.4l-1.5,0.4c-10.4,2.5-18.2,11-19.8,21.6l-1.9,12.1l-1.9-12.1C938.4,674.4,930.6,665.9,920.2,663.3z"/>
	<path class="st1" d="M923.4,61.1l-1.2-0.3l1.2-0.3c8.9-2.2,15.5-9.4,16.9-18.4l1.6-10.3l1.6,10.3c1.4,9,8,16.3,16.9,18.4l1.2,0.3
		l-1.2,0.3c-8.9,2.2-15.5,9.4-16.9,18.4l-1.6,10.3l-1.6-10.3C938.8,70.5,932.2,63.2,923.4,61.1z"/>
	<path class="st1" d="M923.4,576.2l-1.2-0.3l1.2-0.3c8.9-2.2,15.5-9.4,16.9-18.4l1.6-10.3l1.6,10.3c1.4,9,8,16.3,16.9,18.4l1.2,0.3
		l-1.2,0.3c-8.9,2.2-15.5,9.4-16.9,18.4l-1.6,10.3l-1.6-10.3C938.8,585.6,932.2,578.3,923.4,576.2z"/>
</g>
</svg>
