<?xml version="1.0" encoding="utf-8"?>
<!-- Generator: $$$/GeneralStr/196=Adobe Illustrator 27.6.0, SVG Export Plug-In . SVG Version: 6.00 Build 0)  -->
<svg version="1.1" id="圖層_1" xmlns="http://www.w3.org/2000/svg" xmlns:xlink="http://www.w3.org/1999/xlink" x="0px" y="0px"
	 viewBox="0 0 2000 400" style="enable-background:new 0 0 2000 400;" xml:space="preserve">
<style type="text/css">
	.st0{fill:#FFFFFF;}
	.st1{fill:url(#SVGID_1_);stroke:#FFDA99;stroke-width:4;stroke-miterlimit:10;}
	.st2{opacity:0.3;fill:#FFDA99;enable-background:new    ;}
	.st3{fill:#FFFFFF;stroke:#FFDA99;stroke-width:4;stroke-miterlimit:10;}
</style>
<path class="st0" d="M-101.8,265.2v162.2h2155.2V265.2c0,0-9.2,0-69.9,0c-140,0-183.7-157.8-339-157.8
	c-122.7,0-156.4,146.5-309.1,146.5c-186.6,0-214.5-86.5-363.5-86.5s-273.5,104-390.8,104S397.6,162,295.8,162
	S115.3,265.2-22.3,265.2C-99.2,265.2-101.8,265.2-101.8,265.2z"/>
<linearGradient id="SVGID_1_" gradientUnits="userSpaceOnUse" x1="1008.8271" y1="409.2616" x2="1008.8271" y2="196.0696" gradientTransform="matrix(-1 0 0 -1 1979.3 402)">
	<stop  offset="0.33" style="stop-color:#FBB03B;stop-opacity:0"/>
	<stop  offset="1" style="stop-color:#FBB03B;stop-opacity:0.5"/>
</linearGradient>
<path class="st1" d="M-146.2,168.6V-27.3h2233.3v195.9c0,0-40,0-142.8,0c-160.5,0-134.9,50.6-310.6,50.6
	c-142.3,0-100-39.5-281.5-39.5S1196.9,267,1007.9,267s-173.1-77-323.9-77s-171.1,63.6-289.9,63.6s-134.4-85.1-449.8-85.1
	C-134.4,168.6-146.2,168.6-146.2,168.6z"/>
<g>
	<circle class="st2" cx="1355.5" cy="182.2" r="22.3"/>
	<circle class="st3" cx="1355.5" cy="182.2" r="6.5"/>
</g>
<g>
	<circle class="st2" cx="1651.1" cy="220.3" r="22.3"/>
	<circle class="st3" cx="1651.1" cy="220.3" r="6.5"/>
</g>
<g>
	<circle class="st2" cx="690.5" cy="190.1" r="22.3"/>
	<circle class="st3" cx="690.5" cy="190.1" r="6.5"/>
</g>
<g>
	<circle class="st2" cx="391.5" cy="255.1" r="22.3"/>
	<circle class="st3" cx="391.5" cy="255.1" r="6.5"/>
</g>
</svg>
