<?xml version="1.0" encoding="utf-8"?>
<!-- Generator: $$$/GeneralStr/196=Adobe Illustrator 27.6.0, SVG Export Plug-In . SVG Version: 6.00 Build 0)  -->
<svg version="1.1" id="圖層_1" xmlns="http://www.w3.org/2000/svg" xmlns:xlink="http://www.w3.org/1999/xlink" x="0px" y="0px"
	 viewBox="0 0 2000 400" style="enable-background:new 0 0 2000 400;" xml:space="preserve">
<style type="text/css">
	.st0{fill:#FFFFFF;}
	.st1{fill:url(#SVGID_1_);stroke:#99FFF0;stroke-width:4;stroke-miterlimit:10;}
	.st2{opacity:0.3;fill:#49D3D6;}
	.st3{fill:#FFFFFF;stroke:#99FFF0;stroke-width:4;stroke-miterlimit:10;}
</style>
<path class="st0" d="M2068.5,114.1V-48.1H-86.6v162.2c0,0,9.2,0,69.9,0c140,0,179.3,92,358.4,92s286.9-90.7,439.6-90.7
	c186.6,0,254.5,136.5,403.5,136.5s173.5-154,290.8-154c117.3,0,173.7,109.4,275.5,109.4s100.5-93.2,238.1-93.2
	C2066,114.1,2068.5,114.1,2068.5,114.1z"/>
<linearGradient id="SVGID_1_" gradientUnits="userSpaceOnUse" x1="1076.9999" y1="447.01" x2="1076.9999" y2="233.818" gradientTransform="matrix(1 0 0 1 -80.6997 -61.4968)">
	<stop  offset="0.33" style="stop-color:#3BC8FB;stop-opacity:0"/>
	<stop  offset="1" style="stop-color:#3BC8FB;stop-opacity:0.5"/>
</linearGradient>
<path class="st1" d="M2113,209.7v195.9H-120.3V209.7c0,0,40,0,142.8,0c160.5,0,134.9-50.6,310.6-50.6c142.3,0,100,39.5,281.5,39.5
	s155.3-87.4,344.3-87.4s173.1,77,323.9,77s171.1-63.6,289.9-63.6s134.4,85.1,449.8,85.1C2101.2,209.7,2113,209.7,2113,209.7z"/>
<g>
	<circle class="st2" cx="2001" cy="210.4" r="22.3"/>
	<circle class="st3" cx="2001" cy="210.4" r="6.5"/>
</g>
<g>
	<circle class="st2" cx="0.8" cy="210.4" r="22.3"/>
	<circle class="st3" cx="0.8" cy="210.4" r="6.5"/>
</g>
<g>
	<circle class="st2" cx="605.7" cy="200" r="22.3"/>
	<circle class="st3" cx="605.7" cy="200" r="6.5"/>
</g>
<g>
	<circle class="st2" cx="952.4" cy="112.2" r="22.3"/>
	<circle class="st3" cx="952.4" cy="112.2" r="6.5"/>
</g>
<g>
	<circle class="st2" cx="1571.9" cy="125.2" r="22.3"/>
	<circle class="st3" cx="1571.9" cy="125.2" r="6.5"/>
</g>
</svg>
