<?xml version="1.0" encoding="utf-8"?>
<!-- Generator: $$$/GeneralStr/196=Adobe Illustrator 27.6.0, SVG Export Plug-In . SVG Version: 6.00 Build 0)  -->
<svg version="1.1" id="圖層_1" xmlns="http://www.w3.org/2000/svg" xmlns:xlink="http://www.w3.org/1999/xlink" x="0px" y="0px"
	 viewBox="0 0 2000 400" style="enable-background:new 0 0 2000 400;" xml:space="preserve">
<style type="text/css">
	.st0{fill:#FFFFFF;}
	.st1{fill:url(#SVGID_1_);stroke:#92B6FF;stroke-width:4;stroke-miterlimit:10;}
	.st2{opacity:0.3;fill:#A494FF;enable-background:new    ;}
	.st3{fill:#FFFFFF;stroke:#92B6FF;stroke-width:4;stroke-miterlimit:10;}
</style>
<path class="st0" d="M-67.6,288.5v162.2h2155.2V288.5c0,0-9.2,0-69.9,0c-140,0-179.3-122-358.4-122s-196.9,120.7-349.6,120.7
	c-186.6,0-204.5-136.5-353.5-136.5s-203.5,124-320.8,124c-117.3,0-164.6-69.4-335.5-69.4c-148.8,0-150.5,83.2-288.1,83.2
	C-65,288.5-67.6,288.5-67.6,288.5z"/>
<linearGradient id="SVGID_1_" gradientUnits="userSpaceOnUse" x1="974.65" y1="385.9117" x2="974.65" y2="172.7196" gradientTransform="matrix(-1 0 0 -1 1979.3 402)">
	<stop  offset="0.33" style="stop-color:#618EFF;stop-opacity:0"/>
	<stop  offset="1" style="stop-color:#618EFF;stop-opacity:0.5"/>
</linearGradient>
<path class="st1" d="M-112,191.9V-4h2233.3v195.9c0,0-40,0-142.8,0c-160.5,0-134.9,50.6-310.6,50.6c-142.3,0-100-39.5-281.5-39.5
	s-155.3,87.4-344.3,87.4s-183.1-117-333.9-117S547.1,277,428.3,277s-134.4-85.1-449.8-85.1C-100.2,191.9-112,191.9-112,191.9z"/>
<g>
	<circle class="st2" cx="1048.6" cy="290.4" r="22.3"/>
	<circle class="st3" cx="1048.6" cy="290.4" r="6.5"/>
</g>
<g>
	<circle class="st2" cx="1395.2" cy="203" r="22.3"/>
	<circle class="st3" cx="1395.2" cy="203" r="6.5"/>
</g>
<g>
	<circle class="st2" cx="0" cy="192.2" r="22.3"/>
	<circle class="st3" cx="0" cy="192.2" r="6.5"/>
</g>
<g>
	<circle class="st2" cx="2000.2" cy="192.2" r="22.3"/>
	<circle class="st3" cx="2000.2" cy="192.2" r="6.5"/>
</g>
<g>
	<circle class="st2" cx="427.8" cy="276.6" r="22.3"/>
	<circle class="st3" cx="427.8" cy="276.6" r="6.5"/>
</g>
</svg>
